<svg width="24" height="18" viewBox="0 0 24 18" fill="none" xmlns="http://www.w3.org/2000/svg">
<path d="M15.2727 0C17.5873 0 19.8072 0.919478 21.4438 2.55616C23.0805 4.19284 24 6.41266 24 8.72727C24 11.0419 23.0805 13.2617 21.4438 14.8984C19.8072 16.5351 17.5873 17.4545 15.2727 17.4545C12.9581 17.4545 10.7383 16.5351 9.10161 14.8984C7.46493 13.2617 6.54545 11.0419 6.54545 8.72727C6.54545 6.41266 7.46493 4.19284 9.10161 2.55616C10.7383 0.919478 12.9581 0 15.2727 0M15.2727 2.18182C13.5368 2.18182 11.8719 2.87143 10.6444 4.09894C9.41688 5.32645 8.72727 6.99131 8.72727 8.72727C8.72727 10.4632 9.41688 12.1281 10.6444 13.3556C11.8719 14.5831 13.5368 15.2727 15.2727 15.2727C17.0087 15.2727 18.6736 14.5831 19.9011 13.3556C21.1286 12.1281 21.8182 10.4632 21.8182 8.72727C21.8182 6.99131 21.1286 5.32645 19.9011 4.09894C18.6736 2.87143 17.0087 2.18182 15.2727 2.18182ZM14.1818 4.36364H15.8182V8.48727L18.36 11.0291L17.2036 12.1855L14.1818 9.16364V4.36364ZM1.09091 15.2727C0.801582 15.2727 0.524105 15.1578 0.31952 14.9532C0.114935 14.7486 0 14.4711 0 14.1818C0 13.8925 0.114935 13.615 0.31952 13.4104C0.524105 13.2058 0.801582 13.0909 1.09091 13.0909H5.26909C5.60727 13.8655 6.04364 14.5964 6.54545 15.2727H1.09091ZM2.18182 9.81818C1.89249 9.81818 1.61501 9.70325 1.41043 9.49866C1.20584 9.29408 1.09091 9.0166 1.09091 8.72727C1.09091 8.43794 1.20584 8.16047 1.41043 7.95588C1.61501 7.7513 1.89249 7.63636 2.18182 7.63636H4.41818L4.36364 8.72727L4.41818 9.81818H2.18182ZM3.27273 4.36364C2.9834 4.36364 2.70592 4.2487 2.50134 4.04412C2.29675 3.83953 2.18182 3.56205 2.18182 3.27273C2.18182 2.9834 2.29675 2.70592 2.50134 2.50134C2.70592 2.29675 2.9834 2.18182 3.27273 2.18182H6.54545C6.04364 2.85818 5.60727 3.58909 5.26909 4.36364H3.27273Z" fill="black"/>
</svg>
