<svg width="24" height="24" viewBox="0 0 24 24" fill="none" xmlns="http://www.w3.org/2000/svg">
<path d="M12.59 19.41C12.8223 19.6437 13.1088 19.8164 13.4239 19.9127C13.739 20.009 14.073 20.0259 14.3963 19.962C14.7195 19.8981 15.022 19.7553 15.2768 19.5464C15.5315 19.3374 15.7307 19.0687 15.8566 18.7642C15.9825 18.4597 16.0313 18.1288 15.9985 17.8009C15.9657 17.4731 15.8524 17.1584 15.6687 16.8848C15.4849 16.6113 15.2365 16.3874 14.9454 16.233C14.6542 16.0787 14.3295 15.9986 14 16H2M17.73 7.73C18.0208 7.43988 18.3787 7.22591 18.7719 7.10701C19.1652 6.98811 19.5816 6.96794 19.9845 7.04828C20.3874 7.12863 20.7642 7.30702 21.0817 7.56767C21.3993 7.82831 21.6477 8.16319 21.805 8.54269C21.9623 8.92218 22.0236 9.33459 21.9836 9.74344C21.9436 10.1523 21.8035 10.545 21.5756 10.8868C21.3477 11.2286 21.0391 11.509 20.6771 11.7031C20.3151 11.8973 19.9108 11.9993 19.5 12H2" stroke="#000" stroke-width="1.5" stroke-linecap="round" stroke-linejoin="round"/>
<path d="M9.64645 8.35355C9.84171 8.54882 10.1583 8.54882 10.3536 8.35355L13.5355 5.17157C13.7308 4.97631 13.7308 4.65973 13.5355 4.46447C13.3403 4.2692 13.0237 4.2692 12.8284 4.46447L10 7.29289L7.17157 4.46447C6.97631 4.2692 6.65973 4.2692 6.46447 4.46447C6.2692 4.65973 6.2692 4.97631 6.46447 5.17157L9.64645 8.35355ZM9.5 1V8H10.5V1H9.5Z" fill="#000"/>
</svg>
