<svg width="788" height="554" viewBox="0 0 788 554" fill="none" xmlns="http://www.w3.org/2000/svg">
<g filter="url(#filter0_bd_2_126)">
<mask id="path-1-inside-1_2_126" fill="white">
<path fill-rule="evenodd" clip-rule="evenodd" d="M386.041 295.775C386.311 295.778 386.581 295.78 386.851 295.78C425.317 295.78 456.5 264.597 456.5 226.13C456.5 187.664 425.317 156.481 386.851 156.481C386.581 156.481 386.311 156.483 386.041 156.486V156.481H368.048C368.698 151.715 369.034 146.848 369.034 141.903C369.034 82.8623 321.172 35 262.13 35C203.089 35 155.227 82.8623 155.227 141.903C155.227 147.474 155.653 152.946 156.475 158.287C151.39 157.106 146.093 156.481 140.649 156.481C102.183 156.481 71 187.664 71 226.13C71 264.597 102.183 295.78 140.649 295.78C140.921 295.78 141.192 295.778 141.463 295.775L141.459 295.78H386.041V295.775Z"/>
</mask>
<path fill-rule="evenodd" clip-rule="evenodd" d="M386.041 295.775C386.311 295.778 386.581 295.78 386.851 295.78C425.317 295.78 456.5 264.597 456.5 226.13C456.5 187.664 425.317 156.481 386.851 156.481C386.581 156.481 386.311 156.483 386.041 156.486V156.481H368.048C368.698 151.715 369.034 146.848 369.034 141.903C369.034 82.8623 321.172 35 262.13 35C203.089 35 155.227 82.8623 155.227 141.903C155.227 147.474 155.653 152.946 156.475 158.287C151.39 157.106 146.093 156.481 140.649 156.481C102.183 156.481 71 187.664 71 226.13C71 264.597 102.183 295.78 140.649 295.78C140.921 295.78 141.192 295.778 141.463 295.775L141.459 295.78H386.041V295.775Z" fill="url(#paint0_linear_2_126)" shape-rendering="crispEdges"/>
<path d="M386.041 295.775L386.064 293.775C385.53 293.769 385.015 293.977 384.635 294.353C384.255 294.728 384.041 295.241 384.041 295.775H386.041ZM386.041 156.486H384.041C384.041 157.02 384.255 157.532 384.635 157.908C385.015 158.284 385.529 158.492 386.064 158.486L386.041 156.486ZM386.041 156.481H388.041C388.041 155.377 387.146 154.481 386.041 154.481V156.481ZM368.048 156.481L366.067 156.211C365.988 156.783 366.162 157.361 366.541 157.796C366.921 158.232 367.471 158.481 368.048 158.481V156.481ZM156.475 158.287L156.022 160.235C156.669 160.385 157.348 160.205 157.834 159.754C158.321 159.302 158.552 158.639 158.451 157.983L156.475 158.287ZM141.463 295.775L143.031 297.016C143.51 296.411 143.598 295.585 143.258 294.893C142.918 294.201 142.211 293.766 141.44 293.775L141.463 295.775ZM141.459 295.78L139.891 294.539C139.415 295.14 139.325 295.961 139.659 296.651C139.993 297.341 140.692 297.78 141.459 297.78V295.78ZM386.041 295.78V297.78C387.146 297.78 388.041 296.884 388.041 295.78H386.041ZM386.018 297.775C386.295 297.778 386.573 297.78 386.851 297.78V293.78C386.588 293.78 386.326 293.778 386.064 293.775L386.018 297.775ZM386.851 297.78C426.422 297.78 458.5 265.701 458.5 226.13H454.5C454.5 263.492 424.212 293.78 386.851 293.78V297.78ZM458.5 226.13C458.5 186.56 426.422 154.481 386.851 154.481V158.481C424.212 158.481 454.5 188.769 454.5 226.13H458.5ZM386.851 154.481C386.573 154.481 386.295 154.483 386.018 154.486L386.064 158.486C386.326 158.483 386.588 158.481 386.851 158.481V154.481ZM384.041 156.481V156.486H388.041V156.481H384.041ZM368.048 158.481H386.041V154.481H368.048V158.481ZM370.03 156.751C370.692 151.896 371.034 146.939 371.034 141.903H367.034C367.034 146.758 366.704 151.534 366.067 156.211L370.03 156.751ZM371.034 141.903C371.034 81.7577 322.276 33 262.13 33V37C320.067 37 367.034 83.9669 367.034 141.903H371.034ZM262.13 33C201.985 33 153.227 81.7577 153.227 141.903H157.227C157.227 83.9669 204.194 37 262.13 37V33ZM153.227 141.903C153.227 147.577 153.661 153.15 154.498 158.591L158.451 157.983C157.645 152.742 157.227 147.372 157.227 141.903H153.227ZM156.927 156.339C151.696 155.123 146.246 154.481 140.649 154.481V158.481C145.939 158.481 151.085 159.088 156.022 160.235L156.927 156.339ZM140.649 154.481C101.078 154.481 69 186.56 69 226.13H73C73 188.769 103.288 158.481 140.649 158.481V154.481ZM69 226.13C69 265.701 101.078 297.78 140.649 297.78V293.78C103.288 293.78 73 263.492 73 226.13H69ZM140.649 297.78C140.928 297.78 141.207 297.778 141.486 297.775L141.44 293.775C141.177 293.778 140.913 293.78 140.649 293.78V297.78ZM143.028 297.02L143.031 297.016L139.894 294.534L139.891 294.539L143.028 297.02ZM386.041 293.78H141.459V297.78H386.041V293.78ZM384.041 295.775V295.78H388.041V295.775H384.041Z" fill="url(#paint1_linear_2_126)" mask="url(#path-1-inside-1_2_126)"/>
</g>
<g filter="url(#filter1_bd_2_126)">
<mask id="path-3-inside-2_2_126" fill="white">
<path fill-rule="evenodd" clip-rule="evenodd" d="M688.041 375.775C688.311 375.778 688.581 375.78 688.851 375.78C727.317 375.78 758.5 344.597 758.5 306.13C758.5 267.664 727.317 236.481 688.851 236.481C688.581 236.481 688.311 236.483 688.041 236.486V236.481H670.048C670.698 231.715 671.034 226.848 671.034 221.903C671.034 162.862 623.172 115 564.131 115C505.089 115 457.227 162.862 457.227 221.903C457.227 227.474 457.653 232.946 458.475 238.287C453.391 237.106 448.093 236.481 442.649 236.481C404.183 236.481 373 267.664 373 306.13C373 344.597 404.183 375.78 442.649 375.78C442.921 375.78 443.192 375.778 443.463 375.775L443.459 375.78H688.041V375.775Z"/>
</mask>
<path fill-rule="evenodd" clip-rule="evenodd" d="M688.041 375.775C688.311 375.778 688.581 375.78 688.851 375.78C727.317 375.78 758.5 344.597 758.5 306.13C758.5 267.664 727.317 236.481 688.851 236.481C688.581 236.481 688.311 236.483 688.041 236.486V236.481H670.048C670.698 231.715 671.034 226.848 671.034 221.903C671.034 162.862 623.172 115 564.131 115C505.089 115 457.227 162.862 457.227 221.903C457.227 227.474 457.653 232.946 458.475 238.287C453.391 237.106 448.093 236.481 442.649 236.481C404.183 236.481 373 267.664 373 306.13C373 344.597 404.183 375.78 442.649 375.78C442.921 375.78 443.192 375.778 443.463 375.775L443.459 375.78H688.041V375.775Z" fill="url(#paint2_linear_2_126)" shape-rendering="crispEdges"/>
<path d="M688.041 375.775L688.064 373.775C687.529 373.769 687.015 373.977 686.635 374.353C686.255 374.728 686.041 375.241 686.041 375.775H688.041ZM688.041 236.486H686.041C686.041 237.02 686.255 237.532 686.635 237.908C687.015 238.284 687.529 238.492 688.064 238.486L688.041 236.486ZM688.041 236.481H690.041C690.041 235.377 689.146 234.481 688.041 234.481V236.481ZM670.048 236.481L668.066 236.211C667.988 236.783 668.162 237.361 668.541 237.796C668.921 238.231 669.47 238.481 670.048 238.481V236.481ZM458.474 238.287L458.022 240.235C458.668 240.385 459.347 240.205 459.834 239.754C460.321 239.302 460.552 238.639 460.451 237.983L458.474 238.287ZM443.463 375.775L445.031 377.016C445.509 376.411 445.598 375.585 445.258 374.893C444.918 374.201 444.211 373.766 443.44 373.775L443.463 375.775ZM443.459 375.78L441.89 374.539C441.415 375.14 441.325 375.961 441.659 376.651C441.993 377.341 442.692 377.78 443.459 377.78V375.78ZM688.041 375.78V377.78C689.146 377.78 690.041 376.884 690.041 375.78H688.041ZM688.018 377.775C688.295 377.778 688.573 377.78 688.851 377.78V373.78C688.588 373.78 688.326 373.778 688.064 373.775L688.018 377.775ZM688.851 377.78C728.421 377.78 760.5 345.701 760.5 306.13H756.5C756.5 343.492 726.212 373.78 688.851 373.78V377.78ZM760.5 306.13C760.5 266.56 728.421 234.481 688.851 234.481V238.481C726.212 238.481 756.5 268.769 756.5 306.13H760.5ZM688.851 234.481C688.573 234.481 688.295 234.483 688.018 234.486L688.064 238.486C688.326 238.483 688.588 238.481 688.851 238.481V234.481ZM686.041 236.481V236.486H690.041V236.481H686.041ZM670.048 238.481H688.041V234.481H670.048V238.481ZM672.03 236.751C672.692 231.896 673.034 226.939 673.034 221.903H669.034C669.034 226.758 668.704 231.534 668.066 236.211L672.03 236.751ZM673.034 221.903C673.034 161.758 624.276 113 564.13 113V117C622.067 117 669.034 163.967 669.034 221.903H673.034ZM564.13 113C503.985 113 455.227 161.758 455.227 221.903H459.227C459.227 163.967 506.194 117 564.13 117V113ZM455.227 221.903C455.227 227.577 455.661 233.15 456.498 238.591L460.451 237.983C459.645 232.742 459.227 227.372 459.227 221.903H455.227ZM458.927 236.339C453.696 235.123 448.246 234.481 442.649 234.481V238.481C447.939 238.481 453.085 239.088 458.022 240.235L458.927 236.339ZM442.649 234.481C403.078 234.481 371 266.56 371 306.13H375C375 268.769 405.287 238.481 442.649 238.481V234.481ZM371 306.13C371 345.701 403.078 377.78 442.649 377.78V373.78C405.287 373.78 375 343.492 375 306.13H371ZM442.649 377.78C442.928 377.78 443.207 377.778 443.486 377.775L443.44 373.775C443.177 373.778 442.913 373.78 442.649 373.78V377.78ZM445.027 377.02L445.031 377.016L441.894 374.534L441.89 374.539L445.027 377.02ZM688.041 373.78H443.459V377.78H688.041V373.78ZM686.041 375.775V375.78H690.041V375.775H686.041Z" fill="url(#paint3_linear_2_126)" mask="url(#path-3-inside-2_2_126)"/>
</g>
<g filter="url(#filter2_bd_2_126)">
<mask id="path-5-inside-3_2_126" fill="white">
<path fill-rule="evenodd" clip-rule="evenodd" d="M579.58 476.284C579.953 476.289 580.327 476.291 580.701 476.291C633.927 476.291 677.076 433.142 677.076 379.916C677.076 326.689 633.927 283.541 580.701 283.541C580.327 283.541 579.953 283.543 579.58 283.547V283.541H554.683C555.582 276.945 556.047 270.212 556.047 263.369C556.047 181.673 489.818 115.445 408.122 115.445C326.426 115.445 260.198 181.673 260.198 263.369C260.198 271.078 260.787 278.649 261.924 286.039C254.889 284.405 247.559 283.541 240.026 283.541C186.8 283.541 143.651 326.689 143.651 379.916C143.651 433.142 186.8 476.291 240.026 476.291C240.402 476.291 240.777 476.289 241.152 476.284L241.147 476.291H579.58V476.284Z"/>
</mask>
<path fill-rule="evenodd" clip-rule="evenodd" d="M579.58 476.284C579.953 476.289 580.327 476.291 580.701 476.291C633.927 476.291 677.076 433.142 677.076 379.916C677.076 326.689 633.927 283.541 580.701 283.541C580.327 283.541 579.953 283.543 579.58 283.547V283.541H554.683C555.582 276.945 556.047 270.212 556.047 263.369C556.047 181.673 489.818 115.445 408.122 115.445C326.426 115.445 260.198 181.673 260.198 263.369C260.198 271.078 260.787 278.649 261.924 286.039C254.889 284.405 247.559 283.541 240.026 283.541C186.8 283.541 143.651 326.689 143.651 379.916C143.651 433.142 186.8 476.291 240.026 476.291C240.402 476.291 240.777 476.289 241.152 476.284L241.147 476.291H579.58V476.284Z" fill="url(#paint4_linear_2_126)" shape-rendering="crispEdges"/>
<path d="M579.58 476.284L579.603 474.285C579.069 474.278 578.554 474.486 578.174 474.862C577.794 475.238 577.58 475.75 577.58 476.284H579.58ZM579.58 283.547H577.58C577.58 284.082 577.794 284.594 578.174 284.969C578.554 285.345 579.069 285.553 579.603 285.547L579.58 283.547ZM579.58 283.541H581.58C581.58 282.436 580.685 281.541 579.58 281.541V283.541ZM554.683 283.541L552.701 283.271C552.623 283.843 552.796 284.421 553.176 284.856C553.556 285.291 554.105 285.541 554.683 285.541V283.541ZM261.924 286.039L261.471 287.987C262.118 288.138 262.797 287.957 263.284 287.506C263.771 287.055 264.002 286.391 263.901 285.735L261.924 286.039ZM241.152 476.284L242.722 477.523C243.199 476.918 243.287 476.093 242.947 475.402C242.607 474.71 241.9 474.276 241.129 474.284L241.152 476.284ZM241.147 476.291L239.577 475.052C239.102 475.654 239.013 476.474 239.347 477.163C239.682 477.853 240.381 478.291 241.147 478.291V476.291ZM579.58 476.291V478.291C580.685 478.291 581.58 477.395 581.58 476.291H579.58ZM579.558 478.284C579.938 478.289 580.319 478.291 580.701 478.291V474.291C580.335 474.291 579.969 474.289 579.603 474.285L579.558 478.284ZM580.701 478.291C635.032 478.291 679.076 434.247 679.076 379.916H675.076C675.076 432.038 632.823 474.291 580.701 474.291V478.291ZM679.076 379.916C679.076 325.585 635.032 281.541 580.701 281.541V285.541C632.823 285.541 675.076 327.794 675.076 379.916H679.076ZM580.701 281.541C580.319 281.541 579.938 281.543 579.557 281.547L579.603 285.547C579.969 285.543 580.334 285.541 580.701 285.541V281.541ZM577.58 283.541V283.547H581.58V283.541H577.58ZM554.683 285.541H579.58V281.541H554.683V285.541ZM556.665 283.811C557.576 277.126 558.047 270.302 558.047 263.369H554.047C554.047 270.121 553.588 276.764 552.701 283.271L556.665 283.811ZM558.047 263.369C558.047 180.568 490.923 113.445 408.122 113.445V117.445C488.714 117.445 554.047 182.777 554.047 263.369H558.047ZM408.122 113.445C325.321 113.445 258.198 180.568 258.198 263.369H262.198C262.198 182.777 327.53 117.445 408.122 117.445V113.445ZM258.198 263.369C258.198 271.18 258.795 278.853 259.947 286.343L263.901 285.735C262.78 278.445 262.198 270.976 262.198 263.369H258.198ZM262.377 284.091C255.194 282.422 247.712 281.541 240.026 281.541V285.541C247.405 285.541 254.584 286.387 261.471 287.987L262.377 284.091ZM240.026 281.541C185.695 281.541 141.651 325.585 141.651 379.916H145.651C145.651 327.794 187.905 285.541 240.026 285.541V281.541ZM141.651 379.916C141.651 434.247 185.695 478.291 240.026 478.291V474.291C187.905 474.291 145.651 432.038 145.651 379.916H141.651ZM240.026 478.291C240.41 478.291 240.793 478.289 241.175 478.284L241.129 474.284C240.762 474.289 240.395 474.291 240.026 474.291V478.291ZM242.717 477.53L242.722 477.523L239.582 475.045L239.577 475.052L242.717 477.53ZM579.58 474.291H241.147V478.291H579.58V474.291ZM577.58 476.284V476.291H581.58V476.284H577.58Z" fill="url(#paint5_linear_2_126)" mask="url(#path-5-inside-3_2_126)"/>
</g>
<defs>
<filter id="filter0_bd_2_126" x="0" y="0" width="485.5" height="360.78" filterUnits="userSpaceOnUse" color-interpolation-filters="sRGB">
<feFlood flood-opacity="0" result="BackgroundImageFix"/>
<feGaussianBlur in="BackgroundImage" stdDeviation="7"/>
<feComposite in2="SourceAlpha" operator="in" result="effect1_backgroundBlur_2_126"/>
<feColorMatrix in="SourceAlpha" type="matrix" values="0 0 0 0 0 0 0 0 0 0 0 0 0 0 0 0 0 0 127 0" result="hardAlpha"/>
<feOffset dx="-21" dy="15"/>
<feGaussianBlur stdDeviation="25"/>
<feComposite in2="hardAlpha" operator="out"/>
<feColorMatrix type="matrix" values="0 0 0 0 0.113438 0 0 0 0 0.148981 0 0 0 0 0.275 0 0 0 0.1 0"/>
<feBlend mode="normal" in2="effect1_backgroundBlur_2_126" result="effect2_dropShadow_2_126"/>
<feBlend mode="normal" in="SourceGraphic" in2="effect2_dropShadow_2_126" result="shape"/>
</filter>
<filter id="filter1_bd_2_126" x="302" y="80" width="485.5" height="360.78" filterUnits="userSpaceOnUse" color-interpolation-filters="sRGB">
<feFlood flood-opacity="0" result="BackgroundImageFix"/>
<feGaussianBlur in="BackgroundImage" stdDeviation="7"/>
<feComposite in2="SourceAlpha" operator="in" result="effect1_backgroundBlur_2_126"/>
<feColorMatrix in="SourceAlpha" type="matrix" values="0 0 0 0 0 0 0 0 0 0 0 0 0 0 0 0 0 0 127 0" result="hardAlpha"/>
<feOffset dx="-21" dy="15"/>
<feGaussianBlur stdDeviation="25"/>
<feComposite in2="hardAlpha" operator="out"/>
<feColorMatrix type="matrix" values="0 0 0 0 0.113438 0 0 0 0 0.148981 0 0 0 0 0.275 0 0 0 0.1 0"/>
<feBlend mode="normal" in2="effect1_backgroundBlur_2_126" result="effect2_dropShadow_2_126"/>
<feBlend mode="normal" in="SourceGraphic" in2="effect2_dropShadow_2_126" result="shape"/>
</filter>
<filter id="filter2_bd_2_126" x="60.6514" y="68.4448" width="657.424" height="484.846" filterUnits="userSpaceOnUse" color-interpolation-filters="sRGB">
<feFlood flood-opacity="0" result="BackgroundImageFix"/>
<feGaussianBlur in="BackgroundImage" stdDeviation="12"/>
<feComposite in2="SourceAlpha" operator="in" result="effect1_backgroundBlur_2_126"/>
<feColorMatrix in="SourceAlpha" type="matrix" values="0 0 0 0 0 0 0 0 0 0 0 0 0 0 0 0 0 0 127 0" result="hardAlpha"/>
<feOffset dx="-21" dy="15"/>
<feGaussianBlur stdDeviation="31"/>
<feComposite in2="hardAlpha" operator="out"/>
<feColorMatrix type="matrix" values="0 0 0 0 0.113725 0 0 0 0 0.14902 0 0 0 0 0.27451 0 0 0 0.1 0"/>
<feBlend mode="normal" in2="effect1_backgroundBlur_2_126" result="effect2_dropShadow_2_126"/>
<feBlend mode="normal" in="SourceGraphic" in2="effect2_dropShadow_2_126" result="shape"/>
</filter>
<linearGradient id="paint0_linear_2_126" x1="281.68" y1="42.8445" x2="281.68" y2="325.246" gradientUnits="userSpaceOnUse">
<stop stop-color="white"/>
<stop offset="1" stop-color="white" stop-opacity="0"/>
</linearGradient>
<linearGradient id="paint1_linear_2_126" x1="263.75" y1="35" x2="263.75" y2="295.78" gradientUnits="userSpaceOnUse">
<stop stop-color="white"/>
<stop offset="1" stop-color="white" stop-opacity="0"/>
</linearGradient>
<linearGradient id="paint2_linear_2_126" x1="583.68" y1="122.844" x2="583.68" y2="405.246" gradientUnits="userSpaceOnUse">
<stop stop-color="white"/>
<stop offset="1" stop-color="white" stop-opacity="0"/>
</linearGradient>
<linearGradient id="paint3_linear_2_126" x1="565.75" y1="115" x2="565.75" y2="375.78" gradientUnits="userSpaceOnUse">
<stop stop-color="white"/>
<stop offset="1" stop-color="white" stop-opacity="0"/>
</linearGradient>
<linearGradient id="paint4_linear_2_126" x1="410.364" y1="0.0188654" x2="410.364" y2="526.72" gradientUnits="userSpaceOnUse">
<stop stop-color="white"/>
<stop offset="1" stop-color="white" stop-opacity="0.58"/>
</linearGradient>
<linearGradient id="paint5_linear_2_126" x1="410.364" y1="115.445" x2="410.364" y2="476.291" gradientUnits="userSpaceOnUse">
<stop stop-color="white"/>
<stop offset="1" stop-color="white" stop-opacity="0"/>
</linearGradient>
</defs>
</svg>
