<svg width="615" height="557" viewBox="0 0 615 557" fill="none" xmlns="http://www.w3.org/2000/svg">
<g filter="url(#filter0_bd_2_483)">
<mask id="path-1-inside-1_2_483" fill="white">
<path fill-rule="evenodd" clip-rule="evenodd" d="M281.436 209.188C281.616 209.19 281.796 209.191 281.977 209.191C307.671 209.191 328.5 188.362 328.5 162.668C328.5 136.974 307.671 116.145 281.977 116.145C281.796 116.145 281.616 116.146 281.436 116.148V116.145H269.417C269.851 112.961 270.076 109.711 270.076 106.408C270.076 66.9703 238.105 35 198.668 35C159.231 35 127.26 66.9703 127.26 106.408C127.26 110.129 127.545 113.783 128.094 117.351C124.698 116.562 121.159 116.145 117.523 116.145C91.8291 116.145 71 136.974 71 162.668C71 188.362 91.8291 209.191 117.523 209.191C117.705 209.191 117.886 209.19 118.067 209.188L118.064 209.191H281.436V209.188Z"/>
</mask>
<path fill-rule="evenodd" clip-rule="evenodd" d="M281.436 209.188C281.616 209.19 281.796 209.191 281.977 209.191C307.671 209.191 328.5 188.362 328.5 162.668C328.5 136.974 307.671 116.145 281.977 116.145C281.796 116.145 281.616 116.146 281.436 116.148V116.145H269.417C269.851 112.961 270.076 109.711 270.076 106.408C270.076 66.9703 238.105 35 198.668 35C159.231 35 127.26 66.9703 127.26 106.408C127.26 110.129 127.545 113.783 128.094 117.351C124.698 116.562 121.159 116.145 117.523 116.145C91.8291 116.145 71 136.974 71 162.668C71 188.362 91.8291 209.191 117.523 209.191C117.705 209.191 117.886 209.19 118.067 209.188L118.064 209.191H281.436V209.188Z" fill="url(#paint0_linear_2_483)" shape-rendering="crispEdges"/>
<path d="M281.436 209.188L281.459 207.188C280.924 207.182 280.41 207.39 280.03 207.766C279.65 208.142 279.436 208.654 279.436 209.188H281.436ZM281.436 116.148H279.436C279.436 116.682 279.65 117.195 280.03 117.57C280.41 117.946 280.924 118.154 281.459 118.148L281.436 116.148ZM281.436 116.145H283.436C283.436 115.04 282.541 114.145 281.436 114.145V116.145ZM269.417 116.145L267.436 115.875C267.358 116.447 267.531 117.025 267.911 117.46C268.29 117.895 268.84 118.145 269.417 118.145V116.145ZM128.094 117.351L127.641 119.299C128.288 119.449 128.967 119.269 129.453 118.818C129.94 118.367 130.171 117.703 130.071 117.047L128.094 117.351ZM118.067 209.188L119.637 210.426C120.114 209.821 120.201 208.996 119.861 208.305C119.521 207.614 118.814 207.179 118.044 207.188L118.067 209.188ZM118.064 209.191L116.493 207.953C116.019 208.555 115.93 209.375 116.265 210.064C116.599 210.754 117.298 211.191 118.064 211.191V209.191ZM281.436 209.191V211.191C282.541 211.191 283.436 210.296 283.436 209.191H281.436ZM281.413 211.188C281.601 211.19 281.789 211.191 281.977 211.191V207.191C281.804 207.191 281.631 207.19 281.459 207.188L281.413 211.188ZM281.977 211.191C308.775 211.191 330.5 189.467 330.5 162.668H326.5C326.5 187.258 306.566 207.191 281.977 207.191V211.191ZM330.5 162.668C330.5 135.869 308.775 114.145 281.977 114.145V118.145C306.566 118.145 326.5 138.079 326.5 162.668H330.5ZM281.977 114.145C281.789 114.145 281.601 114.146 281.413 114.148L281.459 118.148C281.631 118.146 281.804 118.145 281.977 118.145V114.145ZM279.436 116.145V116.148H283.436V116.145H279.436ZM269.417 118.145H281.436V114.145H269.417V118.145ZM271.399 116.415C271.845 113.142 272.076 109.801 272.076 106.408H268.076C268.076 109.62 267.858 112.78 267.436 115.875L271.399 116.415ZM272.076 106.408C272.076 65.8657 239.21 33 198.668 33V37C237.001 37 268.076 68.0748 268.076 106.408H272.076ZM198.668 33C158.126 33 125.26 65.8657 125.26 106.408H129.26C129.26 68.0748 160.335 37 198.668 37V33ZM125.26 106.408C125.26 110.231 125.553 113.987 126.117 117.655L130.071 117.047C129.537 113.58 129.26 110.027 129.26 106.408H125.26ZM128.546 115.403C125.003 114.58 121.313 114.145 117.523 114.145V118.145C121.006 118.145 124.393 118.544 127.641 119.299L128.546 115.403ZM117.523 114.145C90.7245 114.145 69 135.869 69 162.668H73C73 138.079 92.9337 118.145 117.523 118.145V114.145ZM69 162.668C69 189.467 90.7245 211.191 117.523 211.191V207.191C92.9337 207.191 73 187.258 73 162.668H69ZM117.523 211.191C117.712 211.191 117.901 211.19 118.089 211.188L118.044 207.188C117.87 207.19 117.697 207.191 117.523 207.191V211.191ZM119.635 210.429L119.637 210.426L116.496 207.95L116.493 207.953L119.635 210.429ZM281.436 207.191H118.064V211.191H281.436V207.191ZM279.436 209.188V209.191H283.436V209.188H279.436Z" fill="url(#paint1_linear_2_483)" mask="url(#path-1-inside-1_2_483)"/>
</g>
<g filter="url(#filter1_bd_2_483)">
<mask id="path-3-inside-2_2_483" fill="white">
<path fill-rule="evenodd" clip-rule="evenodd" d="M422.068 328.426C422.318 328.429 422.567 328.43 422.817 328.43C458.37 328.43 487.192 299.609 487.192 264.055C487.192 228.502 458.37 199.68 422.817 199.68C422.567 199.68 422.318 199.682 422.068 199.685V199.68H405.438C406.039 195.275 406.349 190.777 406.349 186.206C406.349 131.636 362.111 87.3983 307.541 87.3983C252.971 87.3983 208.733 131.636 208.733 186.206C208.733 191.356 209.127 196.413 209.886 201.349C205.187 200.258 200.29 199.68 195.259 199.68C159.705 199.68 130.884 228.502 130.884 264.055C130.884 299.609 159.705 328.43 195.259 328.43C195.51 328.43 195.76 328.429 196.011 328.426L196.007 328.43H422.068V328.426Z"/>
</mask>
<path fill-rule="evenodd" clip-rule="evenodd" d="M422.068 328.426C422.318 328.429 422.567 328.43 422.817 328.43C458.37 328.43 487.192 299.609 487.192 264.055C487.192 228.502 458.37 199.68 422.817 199.68C422.567 199.68 422.318 199.682 422.068 199.685V199.68H405.438C406.039 195.275 406.349 190.777 406.349 186.206C406.349 131.636 362.111 87.3983 307.541 87.3983C252.971 87.3983 208.733 131.636 208.733 186.206C208.733 191.356 209.127 196.413 209.886 201.349C205.187 200.258 200.29 199.68 195.259 199.68C159.705 199.68 130.884 228.502 130.884 264.055C130.884 299.609 159.705 328.43 195.259 328.43C195.51 328.43 195.76 328.429 196.011 328.426L196.007 328.43H422.068V328.426Z" fill="url(#paint2_linear_2_483)" shape-rendering="crispEdges"/>
<path d="M422.068 328.426L422.091 326.426C421.557 326.42 421.042 326.628 420.662 327.004C420.282 327.38 420.068 327.892 420.068 328.426H422.068ZM422.068 199.685H420.068C420.068 200.219 420.282 200.731 420.662 201.107C421.042 201.483 421.557 201.691 422.091 201.684L422.068 199.685ZM422.068 199.68H424.068C424.068 198.576 423.173 197.68 422.068 197.68V199.68ZM405.438 199.68L403.456 199.41C403.378 199.982 403.551 200.56 403.931 200.996C404.311 201.431 404.86 201.68 405.438 201.68V199.68ZM209.886 201.349L209.433 203.297C210.08 203.448 210.759 203.267 211.245 202.816C211.732 202.365 211.963 201.701 211.863 201.045L209.886 201.349ZM196.011 328.426L197.582 329.663C198.058 329.058 198.145 328.233 197.805 327.542C197.464 326.851 196.758 326.417 195.988 326.426L196.011 328.426ZM196.007 328.43L194.436 327.193C193.962 327.795 193.873 328.615 194.208 329.304C194.542 329.993 195.241 330.43 196.007 330.43V328.43ZM422.068 328.43V330.43C423.173 330.43 424.068 329.535 424.068 328.43H422.068ZM422.046 330.426C422.302 330.429 422.559 330.43 422.817 330.43V326.43C422.575 326.43 422.333 326.429 422.091 326.426L422.046 330.426ZM422.817 330.43C459.475 330.43 489.192 300.713 489.192 264.055H485.192C485.192 298.504 457.266 326.43 422.817 326.43V330.43ZM489.192 264.055C489.192 227.397 459.475 197.68 422.817 197.68V201.68C457.266 201.68 485.192 229.607 485.192 264.055H489.192ZM422.817 197.68C422.559 197.68 422.302 197.682 422.046 197.685L422.091 201.684C422.333 201.682 422.575 201.68 422.817 201.68V197.68ZM420.068 199.68V199.685H424.068V199.68H420.068ZM405.438 201.68H422.068V197.68H405.438V201.68ZM407.42 199.951C408.033 195.456 408.349 190.868 408.349 186.206H404.349C404.349 190.686 404.045 195.094 403.456 199.41L407.42 199.951ZM408.349 186.206C408.349 130.532 363.216 85.3983 307.541 85.3983V89.3983C361.006 89.3983 404.349 132.741 404.349 186.206H408.349ZM307.541 85.3983C251.866 85.3983 206.733 130.532 206.733 186.206H210.733C210.733 132.741 254.075 89.3983 307.541 89.3983V85.3983ZM206.733 186.206C206.733 191.458 207.134 196.616 207.909 201.653L211.863 201.045C211.119 196.209 210.733 191.253 210.733 186.206H206.733ZM210.338 199.401C205.492 198.275 200.444 197.68 195.259 197.68V201.68C200.137 201.68 204.881 202.24 209.433 203.297L210.338 199.401ZM195.259 197.68C158.601 197.68 128.884 227.397 128.884 264.055H132.884C132.884 229.607 160.81 201.68 195.259 201.68V197.68ZM128.884 264.055C128.884 300.713 158.601 330.43 195.259 330.43V326.43C160.81 326.43 132.884 298.504 132.884 264.055H128.884ZM195.259 330.43C195.517 330.43 195.776 330.429 196.033 330.426L195.988 326.426C195.745 326.429 195.502 326.43 195.259 326.43V330.43ZM197.579 329.667L197.582 329.663L194.439 327.189L194.436 327.193L197.579 329.667ZM422.068 326.43H196.007V330.43H422.068V326.43ZM420.068 328.426V328.43H424.068V328.426H420.068Z" fill="url(#paint3_linear_2_483)" mask="url(#path-3-inside-2_2_483)"/>
</g>
<g filter="url(#filter2_bdd_2_483)">
<path d="M373.533 353.167L446.202 220.183C446.552 219.542 447.225 219.142 447.957 219.142H520.565C522.069 219.142 523.035 220.739 522.337 222.07L476 310.531C475.303 311.863 476.269 313.459 477.772 313.459H536.614C538.343 313.459 539.257 315.505 538.105 316.793L382.74 490.436C381.265 492.084 378.602 490.474 379.376 488.402L427.796 358.827C428.285 357.519 427.318 356.127 425.923 356.127H375.288C373.769 356.127 372.804 354.5 373.533 353.167Z" fill="url(#paint4_linear_2_483)"/>
<path d="M374.41 353.647L447.079 220.663L446.202 220.183L447.079 220.663C447.254 220.342 447.591 220.142 447.957 220.142H520.565C521.317 220.142 521.8 220.941 521.451 221.606L475.115 310.067C474.068 312.065 475.517 314.459 477.772 314.459H536.614C537.479 314.459 537.936 315.482 537.359 316.126L381.995 489.769C381.257 490.593 379.926 489.788 380.313 488.752L428.733 359.177C429.466 357.216 428.016 355.127 425.923 355.127H375.288C374.528 355.127 374.046 354.313 374.41 353.647Z" stroke="url(#paint5_linear_2_483)" stroke-width="2"/>
</g>
<g filter="url(#filter3_bd_2_483)">
<mask id="path-7-inside-3_2_483" fill="white">
<path fill-rule="evenodd" clip-rule="evenodd" d="M538.936 261.586C539.116 261.588 539.296 261.59 539.477 261.59C565.171 261.59 586 240.76 586 215.066C586 189.372 565.171 168.543 539.477 168.543C539.296 168.543 539.116 168.544 538.936 168.546V168.543H526.917C527.351 165.359 527.576 162.109 527.576 158.806C527.576 119.369 495.605 87.3983 456.168 87.3983C416.731 87.3983 384.76 119.369 384.76 158.806C384.76 162.527 385.045 166.182 385.594 169.749C382.198 168.96 378.659 168.543 375.023 168.543C349.329 168.543 328.5 189.372 328.5 215.066C328.5 240.76 349.329 261.59 375.023 261.59C375.205 261.59 375.386 261.588 375.567 261.586L375.564 261.59H538.936V261.586Z"/>
</mask>
<path fill-rule="evenodd" clip-rule="evenodd" d="M538.936 261.586C539.116 261.588 539.296 261.59 539.477 261.59C565.171 261.59 586 240.76 586 215.066C586 189.372 565.171 168.543 539.477 168.543C539.296 168.543 539.116 168.544 538.936 168.546V168.543H526.917C527.351 165.359 527.576 162.109 527.576 158.806C527.576 119.369 495.605 87.3983 456.168 87.3983C416.731 87.3983 384.76 119.369 384.76 158.806C384.76 162.527 385.045 166.182 385.594 169.749C382.198 168.96 378.659 168.543 375.023 168.543C349.329 168.543 328.5 189.372 328.5 215.066C328.5 240.76 349.329 261.59 375.023 261.59C375.205 261.59 375.386 261.588 375.567 261.586L375.564 261.59H538.936V261.586Z" fill="url(#paint6_linear_2_483)" shape-rendering="crispEdges"/>
<path d="M538.936 261.586L538.959 259.587C538.424 259.58 537.91 259.789 537.53 260.164C537.15 260.54 536.936 261.052 536.936 261.586H538.936ZM538.936 168.546H536.936C536.936 169.081 537.15 169.593 537.53 169.969C537.91 170.344 538.424 170.552 538.959 170.546L538.936 168.546ZM538.936 168.543H540.936C540.936 167.439 540.041 166.543 538.936 166.543V168.543ZM526.917 168.543L524.936 168.273C524.858 168.845 525.031 169.423 525.411 169.858C525.79 170.294 526.34 170.543 526.917 170.543V168.543ZM385.594 169.749L385.141 171.698C385.788 171.848 386.467 171.667 386.953 171.216C387.44 170.765 387.671 170.101 387.571 169.445L385.594 169.749ZM375.567 261.586L377.137 262.824C377.614 262.219 377.701 261.394 377.361 260.703C377.021 260.012 376.314 259.578 375.544 259.587L375.567 261.586ZM375.564 261.59L373.993 260.352C373.519 260.953 373.43 261.773 373.765 262.463C374.099 263.152 374.798 263.59 375.564 263.59V261.59ZM538.936 261.59V263.59C540.041 263.59 540.936 262.694 540.936 261.59H538.936ZM538.913 263.586C539.101 263.588 539.289 263.59 539.477 263.59V259.59C539.304 259.59 539.131 259.589 538.959 259.587L538.913 263.586ZM539.477 263.59C566.275 263.59 588 241.865 588 215.066H584C584 239.656 564.066 259.59 539.477 259.59V263.59ZM588 215.066C588 188.268 566.275 166.543 539.477 166.543V170.543C564.066 170.543 584 190.477 584 215.066H588ZM539.477 166.543C539.289 166.543 539.101 166.544 538.913 166.546L538.959 170.546C539.131 170.544 539.304 170.543 539.477 170.543V166.543ZM536.936 168.543V168.546H540.936V168.543H536.936ZM526.917 170.543H538.936V166.543H526.917V170.543ZM528.899 168.813C529.345 165.54 529.576 162.2 529.576 158.806H525.576C525.576 162.018 525.358 165.179 524.936 168.273L528.899 168.813ZM529.576 158.806C529.576 118.264 496.71 85.3983 456.168 85.3983V89.3983C494.501 89.3983 525.576 120.473 525.576 158.806H529.576ZM456.168 85.3983C415.626 85.3983 382.76 118.264 382.76 158.806H386.76C386.76 120.473 417.835 89.3983 456.168 89.3983V85.3983ZM382.76 158.806C382.76 162.629 383.053 166.386 383.617 170.053L387.571 169.445C387.037 165.978 386.76 162.425 386.76 158.806H382.76ZM386.046 167.801C382.503 166.978 378.813 166.543 375.023 166.543V170.543C378.506 170.543 381.893 170.943 385.141 171.698L386.046 167.801ZM375.023 166.543C348.225 166.543 326.5 188.268 326.5 215.066H330.5C330.5 190.477 350.434 170.543 375.023 170.543V166.543ZM326.5 215.066C326.5 241.865 348.225 263.59 375.023 263.59V259.59C350.434 259.59 330.5 239.656 330.5 215.066H326.5ZM375.023 263.59C375.212 263.59 375.401 263.588 375.589 263.586L375.544 259.587C375.37 259.589 375.197 259.59 375.023 259.59V263.59ZM377.135 262.827L377.137 262.824L373.996 260.349L373.993 260.352L377.135 262.827ZM538.936 259.59H375.564V263.59H538.936V259.59ZM536.936 261.586V261.59H540.936V261.586H536.936Z" fill="url(#paint7_linear_2_483)" mask="url(#path-7-inside-3_2_483)"/>
</g>
<g filter="url(#filter4_bdd_2_483)">
<path d="M154.498 344.605L156.862 377.713C157.774 390.479 145.6 400.192 133.355 396.467C121.111 392.742 116.407 377.896 124.273 367.8L144.673 341.616C147.771 337.64 154.139 339.578 154.498 344.605Z" fill="url(#paint8_linear_2_483)" stroke="url(#paint9_linear_2_483)" stroke-width="3"/>
<path d="M240.592 344.605L242.956 377.713C243.868 390.479 231.694 400.192 219.449 396.467C207.205 392.742 202.501 377.896 210.367 367.8L230.767 341.616C233.865 337.64 240.233 339.578 240.592 344.605Z" fill="url(#paint10_linear_2_483)" stroke="url(#paint11_linear_2_483)" stroke-width="3"/>
<path d="M326.686 344.605L329.05 377.713C329.961 390.479 317.788 400.192 305.543 396.467C293.299 392.742 288.595 377.896 296.461 367.8L316.861 341.616C319.958 337.64 326.327 339.578 326.686 344.605Z" fill="url(#paint12_linear_2_483)" stroke="url(#paint13_linear_2_483)" stroke-width="3"/>
</g>
<g filter="url(#filter5_bdd_2_483)">
<path d="M187.434 412.753L189.798 445.861C190.71 458.627 178.536 468.34 166.292 464.615C154.047 460.89 149.344 446.045 157.209 435.948L177.609 409.764C180.707 405.789 187.075 407.726 187.434 412.753Z" fill="url(#paint14_linear_2_483)" stroke="url(#paint15_linear_2_483)" stroke-width="3"/>
<path d="M274.265 412.753L276.629 445.861C277.541 458.627 265.367 468.34 253.123 464.615C240.878 460.89 236.175 446.045 244.04 435.948L264.44 409.764C267.538 405.789 273.906 407.726 274.265 412.753Z" fill="url(#paint16_linear_2_483)" stroke="url(#paint17_linear_2_483)" stroke-width="3"/>
</g>
<defs>
<filter id="filter0_bd_2_483" x="0" y="0" width="357.5" height="274.191" filterUnits="userSpaceOnUse" color-interpolation-filters="sRGB">
<feFlood flood-opacity="0" result="BackgroundImageFix"/>
<feGaussianBlur in="BackgroundImage" stdDeviation="7"/>
<feComposite in2="SourceAlpha" operator="in" result="effect1_backgroundBlur_2_483"/>
<feColorMatrix in="SourceAlpha" type="matrix" values="0 0 0 0 0 0 0 0 0 0 0 0 0 0 0 0 0 0 127 0" result="hardAlpha"/>
<feOffset dx="-21" dy="15"/>
<feGaussianBlur stdDeviation="25"/>
<feComposite in2="hardAlpha" operator="out"/>
<feColorMatrix type="matrix" values="0 0 0 0 0.113438 0 0 0 0 0.148981 0 0 0 0 0.275 0 0 0 0.1 0"/>
<feBlend mode="normal" in2="effect1_backgroundBlur_2_483" result="effect2_dropShadow_2_483"/>
<feBlend mode="normal" in="SourceGraphic" in2="effect2_dropShadow_2_483" result="shape"/>
</filter>
<filter id="filter1_bd_2_483" x="59.8838" y="52.3983" width="456.308" height="341.032" filterUnits="userSpaceOnUse" color-interpolation-filters="sRGB">
<feFlood flood-opacity="0" result="BackgroundImageFix"/>
<feGaussianBlur in="BackgroundImage" stdDeviation="7"/>
<feComposite in2="SourceAlpha" operator="in" result="effect1_backgroundBlur_2_483"/>
<feColorMatrix in="SourceAlpha" type="matrix" values="0 0 0 0 0 0 0 0 0 0 0 0 0 0 0 0 0 0 127 0" result="hardAlpha"/>
<feOffset dx="-21" dy="15"/>
<feGaussianBlur stdDeviation="25"/>
<feComposite in2="hardAlpha" operator="out"/>
<feColorMatrix type="matrix" values="0 0 0 0 0.113725 0 0 0 0 0.14902 0 0 0 0 0.27451 0 0 0 0.1 0"/>
<feBlend mode="normal" in2="effect1_backgroundBlur_2_483" result="effect2_dropShadow_2_483"/>
<feBlend mode="normal" in="SourceGraphic" in2="effect2_dropShadow_2_483" result="shape"/>
</filter>
<filter id="filter2_bdd_2_483" x="302.285" y="158.142" width="297.333" height="397.973" filterUnits="userSpaceOnUse" color-interpolation-filters="sRGB">
<feFlood flood-opacity="0" result="BackgroundImageFix"/>
<feGaussianBlur in="BackgroundImage" stdDeviation="7"/>
<feComposite in2="SourceAlpha" operator="in" result="effect1_backgroundBlur_2_483"/>
<feColorMatrix in="SourceAlpha" type="matrix" values="0 0 0 0 0 0 0 0 0 0 0 0 0 0 0 0 0 0 127 0" result="hardAlpha"/>
<feOffset dx="-21" dy="15"/>
<feGaussianBlur stdDeviation="25"/>
<feComposite in2="hardAlpha" operator="out"/>
<feColorMatrix type="matrix" values="0 0 0 0 0.113438 0 0 0 0 0.148981 0 0 0 0 0.275 0 0 0 0.1 0"/>
<feBlend mode="normal" in2="effect1_backgroundBlur_2_483" result="effect2_dropShadow_2_483"/>
<feColorMatrix in="SourceAlpha" type="matrix" values="0 0 0 0 0 0 0 0 0 0 0 0 0 0 0 0 0 0 127 0" result="hardAlpha"/>
<feOffset/>
<feGaussianBlur stdDeviation="30.5"/>
<feComposite in2="hardAlpha" operator="out"/>
<feColorMatrix type="matrix" values="0 0 0 0 1 0 0 0 0 0.721569 0 0 0 0 0.00392157 0 0 0 0.49 0"/>
<feBlend mode="normal" in2="effect2_dropShadow_2_483" result="effect3_dropShadow_2_483"/>
<feBlend mode="normal" in="SourceGraphic" in2="effect3_dropShadow_2_483" result="shape"/>
</filter>
<filter id="filter3_bd_2_483" x="257.5" y="52.3983" width="357.5" height="274.191" filterUnits="userSpaceOnUse" color-interpolation-filters="sRGB">
<feFlood flood-opacity="0" result="BackgroundImageFix"/>
<feGaussianBlur in="BackgroundImage" stdDeviation="7"/>
<feComposite in2="SourceAlpha" operator="in" result="effect1_backgroundBlur_2_483"/>
<feColorMatrix in="SourceAlpha" type="matrix" values="0 0 0 0 0 0 0 0 0 0 0 0 0 0 0 0 0 0 127 0" result="hardAlpha"/>
<feOffset dx="-21" dy="15"/>
<feGaussianBlur stdDeviation="25"/>
<feComposite in2="hardAlpha" operator="out"/>
<feColorMatrix type="matrix" values="0 0 0 0 0.113438 0 0 0 0 0.148981 0 0 0 0 0.275 0 0 0 0.1 0"/>
<feBlend mode="normal" in2="effect1_backgroundBlur_2_483" result="effect2_dropShadow_2_483"/>
<feBlend mode="normal" in="SourceGraphic" in2="effect2_dropShadow_2_483" result="shape"/>
</filter>
<filter id="filter4_bdd_2_483" x="47.9099" y="289.986" width="323.688" height="173.786" filterUnits="userSpaceOnUse" color-interpolation-filters="sRGB">
<feFlood flood-opacity="0" result="BackgroundImageFix"/>
<feGaussianBlur in="BackgroundImage" stdDeviation="7"/>
<feComposite in2="SourceAlpha" operator="in" result="effect1_backgroundBlur_2_483"/>
<feColorMatrix in="SourceAlpha" type="matrix" values="0 0 0 0 0 0 0 0 0 0 0 0 0 0 0 0 0 0 127 0" result="hardAlpha"/>
<feOffset dx="-21" dy="15"/>
<feGaussianBlur stdDeviation="25"/>
<feComposite in2="hardAlpha" operator="out"/>
<feColorMatrix type="matrix" values="0 0 0 0 0.113438 0 0 0 0 0.148981 0 0 0 0 0.275 0 0 0 0.1 0"/>
<feBlend mode="normal" in2="effect1_backgroundBlur_2_483" result="effect2_dropShadow_2_483"/>
<feColorMatrix in="SourceAlpha" type="matrix" values="0 0 0 0 0 0 0 0 0 0 0 0 0 0 0 0 0 0 127 0" result="hardAlpha"/>
<feOffset dy="-7"/>
<feGaussianBlur stdDeviation="20.5"/>
<feComposite in2="hardAlpha" operator="out"/>
<feColorMatrix type="matrix" values="0 0 0 0 0.1375 0 0 0 0 0.74125 0 0 0 0 1 0 0 0 0.3 0"/>
<feBlend mode="normal" in2="effect2_dropShadow_2_483" result="effect3_dropShadow_2_483"/>
<feBlend mode="normal" in="SourceGraphic" in2="effect3_dropShadow_2_483" result="shape"/>
</filter>
<filter id="filter5_bdd_2_483" x="80.8462" y="358.134" width="238.332" height="173.786" filterUnits="userSpaceOnUse" color-interpolation-filters="sRGB">
<feFlood flood-opacity="0" result="BackgroundImageFix"/>
<feGaussianBlur in="BackgroundImage" stdDeviation="7"/>
<feComposite in2="SourceAlpha" operator="in" result="effect1_backgroundBlur_2_483"/>
<feColorMatrix in="SourceAlpha" type="matrix" values="0 0 0 0 0 0 0 0 0 0 0 0 0 0 0 0 0 0 127 0" result="hardAlpha"/>
<feOffset dx="-21" dy="15"/>
<feGaussianBlur stdDeviation="25"/>
<feComposite in2="hardAlpha" operator="out"/>
<feColorMatrix type="matrix" values="0 0 0 0 0.113438 0 0 0 0 0.148981 0 0 0 0 0.275 0 0 0 0.1 0"/>
<feBlend mode="normal" in2="effect1_backgroundBlur_2_483" result="effect2_dropShadow_2_483"/>
<feColorMatrix in="SourceAlpha" type="matrix" values="0 0 0 0 0 0 0 0 0 0 0 0 0 0 0 0 0 0 127 0" result="hardAlpha"/>
<feOffset dy="-7"/>
<feGaussianBlur stdDeviation="20.5"/>
<feComposite in2="hardAlpha" operator="out"/>
<feColorMatrix type="matrix" values="0 0 0 0 0.1375 0 0 0 0 0.74125 0 0 0 0 1 0 0 0 0.3 0"/>
<feBlend mode="normal" in2="effect2_dropShadow_2_483" result="effect3_dropShadow_2_483"/>
<feBlend mode="normal" in="SourceGraphic" in2="effect3_dropShadow_2_483" result="shape"/>
</filter>
<linearGradient id="paint0_linear_2_483" x1="211.727" y1="40.2398" x2="211.727" y2="228.874" gradientUnits="userSpaceOnUse">
<stop stop-color="white"/>
<stop offset="1" stop-color="white" stop-opacity="0"/>
</linearGradient>
<linearGradient id="paint1_linear_2_483" x1="199.75" y1="35" x2="199.75" y2="209.191" gradientUnits="userSpaceOnUse">
<stop stop-color="white"/>
<stop offset="1" stop-color="white" stop-opacity="0"/>
</linearGradient>
<linearGradient id="paint2_linear_2_483" x1="309.038" y1="10.298" x2="309.038" y2="362.115" gradientUnits="userSpaceOnUse">
<stop stop-color="white"/>
<stop offset="1" stop-color="white" stop-opacity="0"/>
</linearGradient>
<linearGradient id="paint3_linear_2_483" x1="309.038" y1="87.3983" x2="309.038" y2="328.43" gradientUnits="userSpaceOnUse">
<stop stop-color="white"/>
<stop offset="1" stop-color="white" stop-opacity="0"/>
</linearGradient>
<linearGradient id="paint4_linear_2_483" x1="472.97" y1="235.61" x2="435.542" y2="398.045" gradientUnits="userSpaceOnUse">
<stop stop-color="#FF4D00"/>
<stop offset="1" stop-color="#FFB800"/>
</linearGradient>
<linearGradient id="paint5_linear_2_483" x1="422.817" y1="395.799" x2="490.935" y2="249.833" gradientUnits="userSpaceOnUse">
<stop stop-color="white"/>
<stop offset="1" stop-color="white" stop-opacity="0"/>
</linearGradient>
<linearGradient id="paint6_linear_2_483" x1="469.227" y1="92.6381" x2="469.227" y2="281.272" gradientUnits="userSpaceOnUse">
<stop stop-color="white"/>
<stop offset="1" stop-color="white" stop-opacity="0"/>
</linearGradient>
<linearGradient id="paint7_linear_2_483" x1="457.25" y1="87.3983" x2="457.25" y2="261.59" gradientUnits="userSpaceOnUse">
<stop stop-color="white"/>
<stop offset="1" stop-color="white" stop-opacity="0"/>
</linearGradient>
<linearGradient id="paint8_linear_2_483" x1="154.695" y1="326.311" x2="132.919" y2="397.902" gradientUnits="userSpaceOnUse">
<stop stop-color="#138EFF"/>
<stop offset="1" stop-color="#00E0FF"/>
</linearGradient>
<linearGradient id="paint9_linear_2_483" x1="154.695" y1="326.311" x2="132.919" y2="397.902" gradientUnits="userSpaceOnUse">
<stop stop-color="white"/>
<stop offset="1" stop-color="white" stop-opacity="0"/>
</linearGradient>
<linearGradient id="paint10_linear_2_483" x1="240.789" y1="326.311" x2="219.013" y2="397.902" gradientUnits="userSpaceOnUse">
<stop stop-color="#138EFF"/>
<stop offset="1" stop-color="#00E0FF"/>
</linearGradient>
<linearGradient id="paint11_linear_2_483" x1="240.789" y1="326.311" x2="219.013" y2="397.902" gradientUnits="userSpaceOnUse">
<stop stop-color="white"/>
<stop offset="1" stop-color="white" stop-opacity="0"/>
</linearGradient>
<linearGradient id="paint12_linear_2_483" x1="326.883" y1="326.311" x2="305.107" y2="397.902" gradientUnits="userSpaceOnUse">
<stop stop-color="#138EFF"/>
<stop offset="1" stop-color="#00E0FF"/>
</linearGradient>
<linearGradient id="paint13_linear_2_483" x1="326.883" y1="326.311" x2="305.107" y2="397.902" gradientUnits="userSpaceOnUse">
<stop stop-color="white"/>
<stop offset="1" stop-color="white" stop-opacity="0"/>
</linearGradient>
<linearGradient id="paint14_linear_2_483" x1="187.632" y1="394.46" x2="165.855" y2="466.05" gradientUnits="userSpaceOnUse">
<stop stop-color="#138EFF"/>
<stop offset="1" stop-color="#00E0FF"/>
</linearGradient>
<linearGradient id="paint15_linear_2_483" x1="187.632" y1="394.46" x2="165.855" y2="466.05" gradientUnits="userSpaceOnUse">
<stop stop-color="white"/>
<stop offset="1" stop-color="white" stop-opacity="0"/>
</linearGradient>
<linearGradient id="paint16_linear_2_483" x1="274.463" y1="394.46" x2="252.686" y2="466.05" gradientUnits="userSpaceOnUse">
<stop stop-color="#138EFF"/>
<stop offset="1" stop-color="#00E0FF"/>
</linearGradient>
<linearGradient id="paint17_linear_2_483" x1="274.463" y1="394.46" x2="252.686" y2="466.05" gradientUnits="userSpaceOnUse">
<stop stop-color="white"/>
<stop offset="1" stop-color="white" stop-opacity="0"/>
</linearGradient>
</defs>
</svg>
