<svg width="341" height="343" viewBox="0 0 341 343" fill="none" xmlns="http://www.w3.org/2000/svg">
<g filter="url(#filter0_bdd_2_472)">
<mask id="path-1-inside-1_2_472" fill="white">
<path fill-rule="evenodd" clip-rule="evenodd" d="M178.167 38.4903C181.637 38.1063 183.662 42.1874 181.627 45.0236C160.345 74.6746 156.036 114.913 173.878 149.599C197.167 194.877 250.103 214.953 296.785 198.315C300.076 197.142 303.439 200.223 302.104 203.452C291.636 228.782 272.47 250.671 246.189 264.19C187.336 294.462 115.085 271.293 84.8129 212.439C54.5406 153.586 77.71 81.3357 136.563 51.0633C149.955 44.175 164.04 40.0537 178.167 38.4903Z"/>
</mask>
<path fill-rule="evenodd" clip-rule="evenodd" d="M178.167 38.4903C181.637 38.1063 183.662 42.1874 181.627 45.0236C160.345 74.6746 156.036 114.913 173.878 149.599C197.167 194.877 250.103 214.953 296.785 198.315C300.076 197.142 303.439 200.223 302.104 203.452C291.636 228.782 272.47 250.671 246.189 264.19C187.336 294.462 115.085 271.293 84.8129 212.439C54.5406 153.586 77.71 81.3357 136.563 51.0633C149.955 44.175 164.04 40.0537 178.167 38.4903Z" fill="url(#paint0_linear_2_472)"/>
<path d="M302.104 203.452L303.953 204.216L302.104 203.452ZM181.627 45.0236L180.002 43.8574L181.627 45.0236ZM178.167 38.4903L178.387 40.4782L178.167 38.4903ZM175.656 148.684C158.172 114.692 162.39 75.2548 183.251 46.1898L180.002 43.8574C158.299 74.0943 153.901 115.135 172.099 150.514L175.656 148.684ZM296.114 196.431C250.364 212.737 198.481 193.059 175.656 148.684L172.099 150.514C195.853 196.695 249.843 217.169 297.457 200.199L296.114 196.431ZM300.256 202.689C289.962 227.596 271.118 249.118 245.274 262.411L247.104 265.968C273.822 252.225 293.31 229.967 303.953 204.216L300.256 202.689ZM245.274 262.411C187.403 292.178 116.358 269.396 86.5914 211.525L83.0344 213.354C113.812 273.19 187.268 296.746 247.104 265.968L245.274 262.411ZM86.5914 211.525C56.8243 153.654 79.607 82.6089 137.478 52.8419L135.648 49.2848C75.8129 80.0624 52.2568 153.519 83.0344 213.354L86.5914 211.525ZM137.478 52.8419C150.65 46.0668 164.499 42.0152 178.387 40.4782L177.947 36.5024C163.582 38.0923 149.26 42.2832 135.648 49.2848L137.478 52.8419ZM297.457 200.199C298.34 199.885 299.223 200.135 299.805 200.686C300.364 201.216 300.569 201.932 300.256 202.689L303.953 204.216C304.975 201.744 304.165 199.305 302.554 197.781C300.965 196.276 298.522 195.573 296.114 196.431L297.457 200.199ZM183.251 46.1898C184.741 44.1145 184.742 41.5741 183.738 39.6312C182.721 37.6622 180.605 36.2083 177.947 36.5024L178.387 40.4782C179.2 40.3882 179.831 40.7829 180.185 41.4675C180.552 42.1782 180.548 43.0964 180.002 43.8574L183.251 46.1898Z" fill="url(#paint1_linear_2_472)" mask="url(#path-1-inside-1_2_472)"/>
</g>
<g filter="url(#filter1_bdd_2_472)">
<path d="M228.747 70.0691C229.311 68.1565 232.02 68.1565 232.584 70.0691L236.75 84.1994C236.942 84.8508 237.451 85.3602 238.102 85.5522L252.233 89.718C254.145 90.2819 254.145 92.9909 252.233 93.5548L238.102 97.7206C237.451 97.9126 236.942 98.4221 236.75 99.0734L232.584 113.204C232.02 115.116 229.311 115.116 228.747 113.204L224.581 99.0734C224.389 98.4221 223.88 97.9126 223.228 97.7206L209.098 93.5548C207.185 92.9909 207.185 90.2819 209.098 89.718L223.228 85.5522C223.88 85.3602 224.389 84.8508 224.581 84.1994L228.747 70.0691Z" fill="url(#paint2_linear_2_472)"/>
<path d="M231.625 70.3518L235.79 84.4822C236.078 85.4592 236.843 86.2234 237.82 86.5114L251.95 90.6772C252.906 90.9592 252.906 92.3137 251.95 92.5956L237.82 96.7614C236.843 97.0495 236.078 97.8136 235.79 98.7906L231.625 112.921C231.343 113.877 229.988 113.877 229.706 112.921L225.54 98.7906C225.252 97.8136 224.488 97.0495 223.511 96.7614L209.381 92.5956C208.424 92.3137 208.424 90.9592 209.381 90.6772L223.511 86.5114C224.488 86.2234 225.252 85.4592 225.54 84.4822L229.706 70.3518C229.988 69.3955 231.343 69.3956 231.625 70.3518Z" stroke="url(#paint3_linear_2_472)" stroke-width="2"/>
</g>
<g filter="url(#filter2_bdd_2_472)">
<path d="M280.525 149.239C281.089 147.327 283.798 147.327 284.362 149.239L287.518 159.946C287.71 160.597 288.22 161.107 288.871 161.299L299.578 164.455C301.491 165.019 301.491 167.728 299.578 168.292L288.871 171.449C288.22 171.641 287.71 172.15 287.518 172.801L284.362 183.508C283.798 185.421 281.089 185.421 280.525 183.508L277.369 172.801C277.177 172.15 276.667 171.641 276.016 171.449L265.309 168.292C263.396 167.728 263.396 165.019 265.309 164.455L276.016 161.299C276.667 161.107 277.177 160.597 277.369 159.946L280.525 149.239Z" fill="url(#paint4_linear_2_472)"/>
<path d="M283.403 149.522L286.559 160.229C286.847 161.206 287.611 161.97 288.588 162.258L299.295 165.415C300.252 165.697 300.252 167.051 299.295 167.333L288.588 170.489C287.611 170.778 286.847 171.542 286.559 172.519L283.403 183.226C283.121 184.182 281.766 184.182 281.484 183.226L278.328 172.519C278.04 171.542 277.276 170.778 276.299 170.489L265.592 167.333C264.635 167.051 264.635 165.697 265.592 165.415L276.299 162.258C277.276 161.97 278.04 161.206 278.328 160.229L281.484 149.522C281.766 148.566 283.121 148.566 283.403 149.522Z" stroke="url(#paint5_linear_2_472)" stroke-width="2"/>
</g>
<defs>
<filter id="filter0_bdd_2_472" x="0.516968" y="0.465088" width="339.887" height="342.021" filterUnits="userSpaceOnUse" color-interpolation-filters="sRGB">
<feFlood flood-opacity="0" result="BackgroundImageFix"/>
<feGaussianBlur in="BackgroundImage" stdDeviation="7"/>
<feComposite in2="SourceAlpha" operator="in" result="effect1_backgroundBlur_2_472"/>
<feColorMatrix in="SourceAlpha" type="matrix" values="0 0 0 0 0 0 0 0 0 0 0 0 0 0 0 0 0 0 127 0" result="hardAlpha"/>
<feOffset dx="-21" dy="15"/>
<feGaussianBlur stdDeviation="25"/>
<feComposite in2="hardAlpha" operator="out"/>
<feColorMatrix type="matrix" values="0 0 0 0 0.113438 0 0 0 0 0.148981 0 0 0 0 0.275 0 0 0 0.05 0"/>
<feBlend mode="normal" in2="effect1_backgroundBlur_2_472" result="effect2_dropShadow_2_472"/>
<feColorMatrix in="SourceAlpha" type="matrix" values="0 0 0 0 0 0 0 0 0 0 0 0 0 0 0 0 0 0 127 0" result="hardAlpha"/>
<feOffset/>
<feGaussianBlur stdDeviation="19"/>
<feComposite in2="hardAlpha" operator="out"/>
<feColorMatrix type="matrix" values="0 0 0 0 0.619608 0 0 0 0 0.423529 0 0 0 0 1 0 0 0 0.19 0"/>
<feBlend mode="normal" in2="effect2_dropShadow_2_472" result="effect3_dropShadow_2_472"/>
<feBlend mode="normal" in="SourceGraphic" in2="effect3_dropShadow_2_472" result="shape"/>
</filter>
<filter id="filter1_bdd_2_472" x="136.664" y="33.6345" width="146.004" height="146.004" filterUnits="userSpaceOnUse" color-interpolation-filters="sRGB">
<feFlood flood-opacity="0" result="BackgroundImageFix"/>
<feGaussianBlur in="BackgroundImage" stdDeviation="7"/>
<feComposite in2="SourceAlpha" operator="in" result="effect1_backgroundBlur_2_472"/>
<feColorMatrix in="SourceAlpha" type="matrix" values="0 0 0 0 0 0 0 0 0 0 0 0 0 0 0 0 0 0 127 0" result="hardAlpha"/>
<feOffset dx="-21" dy="15"/>
<feGaussianBlur stdDeviation="25"/>
<feComposite in2="hardAlpha" operator="out"/>
<feColorMatrix type="matrix" values="0 0 0 0 0.113438 0 0 0 0 0.148981 0 0 0 0 0.275 0 0 0 0.05 0"/>
<feBlend mode="normal" in2="effect1_backgroundBlur_2_472" result="effect2_dropShadow_2_472"/>
<feColorMatrix in="SourceAlpha" type="matrix" values="0 0 0 0 0 0 0 0 0 0 0 0 0 0 0 0 0 0 127 0" result="hardAlpha"/>
<feOffset/>
<feGaussianBlur stdDeviation="9"/>
<feComposite in2="hardAlpha" operator="out"/>
<feColorMatrix type="matrix" values="0 0 0 0 0.607843 0 0 0 0 0.392157 0 0 0 0 1 0 0 0 0.41 0"/>
<feBlend mode="normal" in2="effect2_dropShadow_2_472" result="effect3_dropShadow_2_472"/>
<feBlend mode="normal" in="SourceGraphic" in2="effect3_dropShadow_2_472" result="shape"/>
</filter>
<filter id="filter2_bdd_2_472" x="192.875" y="112.805" width="137.138" height="137.138" filterUnits="userSpaceOnUse" color-interpolation-filters="sRGB">
<feFlood flood-opacity="0" result="BackgroundImageFix"/>
<feGaussianBlur in="BackgroundImage" stdDeviation="7"/>
<feComposite in2="SourceAlpha" operator="in" result="effect1_backgroundBlur_2_472"/>
<feColorMatrix in="SourceAlpha" type="matrix" values="0 0 0 0 0 0 0 0 0 0 0 0 0 0 0 0 0 0 127 0" result="hardAlpha"/>
<feOffset dx="-21" dy="15"/>
<feGaussianBlur stdDeviation="25"/>
<feComposite in2="hardAlpha" operator="out"/>
<feColorMatrix type="matrix" values="0 0 0 0 0.113438 0 0 0 0 0.148981 0 0 0 0 0.275 0 0 0 0.05 0"/>
<feBlend mode="normal" in2="effect1_backgroundBlur_2_472" result="effect2_dropShadow_2_472"/>
<feColorMatrix in="SourceAlpha" type="matrix" values="0 0 0 0 0 0 0 0 0 0 0 0 0 0 0 0 0 0 127 0" result="hardAlpha"/>
<feOffset/>
<feGaussianBlur stdDeviation="9"/>
<feComposite in2="hardAlpha" operator="out"/>
<feColorMatrix type="matrix" values="0 0 0 0 0.607843 0 0 0 0 0.392157 0 0 0 0 1 0 0 0 0.41 0"/>
<feBlend mode="normal" in2="effect2_dropShadow_2_472" result="effect3_dropShadow_2_472"/>
<feBlend mode="normal" in="SourceGraphic" in2="effect3_dropShadow_2_472" result="shape"/>
</filter>
<linearGradient id="paint0_linear_2_472" x1="115.292" y1="64.3788" x2="224.918" y2="277.505" gradientUnits="userSpaceOnUse">
<stop offset="0.0001" stop-color="#D6C2FF"/>
<stop offset="1" stop-color="#7E2FFF"/>
</linearGradient>
<linearGradient id="paint1_linear_2_472" x1="128" y1="-53.2099" x2="197.084" y2="226.498" gradientUnits="userSpaceOnUse">
<stop stop-color="white"/>
<stop offset="1" stop-color="white" stop-opacity="0"/>
</linearGradient>
<linearGradient id="paint2_linear_2_472" x1="229.39" y1="64.0566" x2="229.39" y2="120.205" gradientUnits="userSpaceOnUse">
<stop offset="0.0001" stop-color="#D6C2FF"/>
<stop offset="1" stop-color="#7E2FFF"/>
</linearGradient>
<linearGradient id="paint3_linear_2_472" x1="230.665" y1="63.562" x2="230.665" y2="98.2856" gradientUnits="userSpaceOnUse">
<stop stop-color="white"/>
<stop offset="1" stop-color="white" stop-opacity="0"/>
</linearGradient>
<linearGradient id="paint4_linear_2_472" x1="281.37" y1="143.149" x2="281.37" y2="190.432" gradientUnits="userSpaceOnUse">
<stop offset="0.0001" stop-color="#D6C2FF"/>
<stop offset="1" stop-color="#7E2FFF"/>
</linearGradient>
<linearGradient id="paint5_linear_2_472" x1="282.443" y1="142.732" x2="282.443" y2="171.973" gradientUnits="userSpaceOnUse">
<stop stop-color="white"/>
<stop offset="1" stop-color="white" stop-opacity="0"/>
</linearGradient>
</defs>
</svg>
