<svg width="549" height="476" viewBox="0 0 549 476" fill="none" xmlns="http://www.w3.org/2000/svg">
<g filter="url(#filter0_bdd_2_462)">
<mask id="path-1-inside-1_2_462" fill="white">
<path fill-rule="evenodd" clip-rule="evenodd" d="M371.316 38.7271C374.789 38.3736 376.807 42.4562 374.741 45.2709C350.108 78.8425 344.954 124.778 365.295 164.323C391.78 215.814 452.218 238.443 505.203 218.933C508.482 217.726 511.851 220.798 510.545 224.039C498.827 253.108 477.011 278.265 446.953 293.726C380.492 327.911 298.903 301.747 264.717 235.286C230.532 168.826 256.696 87.2358 323.157 53.0504C338.652 45.0803 354.969 40.3906 371.316 38.7271Z"/>
</mask>
<path fill-rule="evenodd" clip-rule="evenodd" d="M371.316 38.7271C374.789 38.3736 376.807 42.4562 374.741 45.2709C350.108 78.8425 344.954 124.778 365.295 164.323C391.78 215.814 452.218 238.443 505.203 218.933C508.482 217.726 511.851 220.798 510.545 224.039C498.827 253.108 477.011 278.265 446.953 293.726C380.492 327.911 298.903 301.747 264.717 235.286C230.532 168.826 256.696 87.2358 323.157 53.0504C338.652 45.0803 354.969 40.3906 371.316 38.7271Z" fill="url(#paint0_linear_2_462)"/>
<path d="M505.203 218.933L505.894 220.81L505.203 218.933ZM510.545 224.039L508.69 223.291L510.545 224.039ZM374.741 45.2709L376.354 46.4541L374.741 45.2709ZM371.316 38.7271L371.114 36.7373L371.316 38.7271ZM367.073 163.408C347.093 124.563 352.152 79.438 376.354 46.4541L373.129 44.0877C348.064 78.2469 342.816 124.993 363.516 165.238L367.073 163.408ZM504.512 217.056C452.463 236.221 393.091 213.989 367.073 163.408L363.516 165.238C390.469 217.638 451.973 240.665 505.894 220.81L504.512 217.056ZM508.69 223.291C497.144 251.932 475.653 276.714 446.038 291.947L447.868 295.504C478.369 279.816 500.509 254.284 512.4 224.787L508.69 223.291ZM446.038 291.947C380.56 325.628 300.176 299.85 266.496 234.371L262.939 236.201C297.629 303.644 380.425 330.195 447.868 295.504L446.038 291.947ZM266.496 234.371C232.816 168.893 258.593 88.509 324.072 54.8289L322.242 51.2719C254.799 85.9625 228.248 168.758 262.939 236.201L266.496 234.371ZM324.072 54.8289C339.341 46.9749 355.416 42.3554 371.519 40.7168L371.114 36.7373C354.522 38.4257 337.963 43.1857 322.242 51.2719L324.072 54.8289ZM505.894 220.81C506.767 220.488 507.643 220.73 508.224 221.276C508.786 221.804 508.998 222.527 508.69 223.291L512.4 224.787C513.398 222.311 512.578 219.877 510.962 218.36C509.366 216.861 506.917 216.17 504.512 217.056L505.894 220.81ZM376.354 46.4541C377.869 44.389 377.884 41.8473 376.886 39.8993C375.876 37.9279 373.767 36.4674 371.114 36.7373L371.519 40.7168C372.339 40.6333 372.975 41.0374 373.326 41.7226C373.689 42.4312 373.679 43.3381 373.129 44.0877L376.354 46.4541Z" fill="url(#paint1_linear_2_462)" mask="url(#path-1-inside-1_2_462)"/>
</g>
<g filter="url(#filter1_bd_2_462)">
<mask id="path-3-inside-2_2_462" fill="white">
<path fill-rule="evenodd" clip-rule="evenodd" d="M365.602 410.184C365.854 410.187 366.107 410.188 366.361 410.188C402.331 410.188 431.492 381.028 431.492 345.058C431.492 309.087 402.331 279.927 366.361 279.927C366.107 279.927 365.854 279.928 365.602 279.931V279.927H348.777C349.385 275.469 349.699 270.919 349.699 266.294C349.699 211.084 304.942 166.326 249.731 166.326C194.52 166.326 149.763 211.084 149.763 266.294C149.763 271.504 150.161 276.621 150.929 281.615C146.175 280.511 141.221 279.927 136.131 279.927C100.16 279.927 71.0001 309.087 71.0001 345.058C71.0001 381.028 100.16 410.188 136.131 410.188C136.384 410.188 136.638 410.187 136.89 410.184L136.887 410.188H365.602V410.184Z"/>
</mask>
<path fill-rule="evenodd" clip-rule="evenodd" d="M365.602 410.184C365.854 410.187 366.107 410.188 366.361 410.188C402.331 410.188 431.492 381.028 431.492 345.058C431.492 309.087 402.331 279.927 366.361 279.927C366.107 279.927 365.854 279.928 365.602 279.931V279.927H348.777C349.385 275.469 349.699 270.919 349.699 266.294C349.699 211.084 304.942 166.326 249.731 166.326C194.52 166.326 149.763 211.084 149.763 266.294C149.763 271.504 150.161 276.621 150.929 281.615C146.175 280.511 141.221 279.927 136.131 279.927C100.16 279.927 71.0001 309.087 71.0001 345.058C71.0001 381.028 100.16 410.188 136.131 410.188C136.384 410.188 136.638 410.187 136.89 410.184L136.887 410.188H365.602V410.184Z" fill="url(#paint2_linear_2_462)" shape-rendering="crispEdges"/>
<path d="M365.602 410.184L365.624 408.184C365.09 408.178 364.575 408.386 364.195 408.762C363.815 409.138 363.602 409.65 363.602 410.184H365.602ZM365.602 279.931H363.602C363.602 280.466 363.815 280.978 364.195 281.353C364.575 281.729 365.09 281.937 365.624 281.931L365.602 279.931ZM365.602 279.927H367.602C367.602 278.822 366.706 277.927 365.602 277.927V279.927ZM348.777 279.927L346.795 279.657C346.717 280.229 346.891 280.807 347.27 281.242C347.65 281.677 348.199 281.927 348.777 281.927V279.927ZM150.929 281.615L150.477 283.564C151.123 283.714 151.802 283.533 152.289 283.082C152.776 282.631 153.007 281.967 152.906 281.311L150.929 281.615ZM136.89 410.184L138.461 411.423C138.938 410.818 139.025 409.993 138.685 409.301C138.345 408.61 137.638 408.176 136.868 408.184L136.89 410.184ZM136.887 410.189L135.317 408.95C134.842 409.552 134.753 410.372 135.087 411.061C135.422 411.751 136.121 412.189 136.887 412.189V410.189ZM365.602 410.189V412.189C366.706 412.189 367.602 411.293 367.602 410.189H365.602ZM365.579 412.184C365.839 412.187 366.1 412.189 366.361 412.189V408.189C366.115 408.189 365.869 408.187 365.624 408.184L365.579 412.184ZM366.361 412.189C403.436 412.189 433.491 382.133 433.491 345.058H429.491C429.491 379.924 401.227 408.189 366.361 408.189V412.189ZM433.491 345.058C433.491 307.982 403.436 277.927 366.361 277.927V281.927C401.227 281.927 429.491 310.192 429.491 345.058H433.491ZM366.361 277.927C366.1 277.927 365.839 277.928 365.579 277.931L365.624 281.931C365.869 281.928 366.115 281.927 366.361 281.927V277.927ZM363.602 279.927V279.931H367.602V279.927H363.602ZM348.777 281.927H365.602V277.927H348.777V281.927ZM350.759 280.197C351.379 275.65 351.699 271.009 351.699 266.295H347.699C347.699 270.828 347.391 275.289 346.795 279.657L350.759 280.197ZM351.699 266.295C351.699 209.979 306.046 164.326 249.731 164.326V168.326C303.837 168.326 347.699 212.188 347.699 266.295H351.699ZM249.731 164.326C193.415 164.326 147.762 209.979 147.762 266.295H151.762C151.762 212.188 195.624 168.326 249.731 168.326V164.326ZM147.762 266.295C147.762 271.606 148.169 276.825 148.952 281.919L152.906 281.311C152.153 276.417 151.762 271.402 151.762 266.295H147.762ZM151.382 279.667C146.48 278.529 141.375 277.927 136.131 277.927V281.927C141.068 281.927 145.87 282.493 150.477 283.564L151.382 279.667ZM136.131 277.927C99.0555 277.927 69 307.982 69 345.058H73C73 310.192 101.265 281.927 136.131 281.927V277.927ZM69 345.058C69 382.133 99.0555 412.189 136.131 412.189V408.189C101.265 408.189 73 379.924 73 345.058H69ZM136.131 412.189C136.392 412.189 136.653 412.187 136.913 412.184L136.868 408.184C136.622 408.187 136.377 408.189 136.131 408.189V412.189ZM138.457 411.427L138.461 411.423L135.32 408.946L135.317 408.95L138.457 411.427ZM365.602 408.189H136.887V412.189H365.602V408.189ZM363.602 410.184V410.189H367.602V410.184H363.602Z" fill="url(#paint3_linear_2_462)" mask="url(#path-3-inside-2_2_462)"/>
</g>
<defs>
<filter id="filter0_bdd_2_462" x="178.703" y="0.705566" width="370.13" height="373.035" filterUnits="userSpaceOnUse" color-interpolation-filters="sRGB">
<feFlood flood-opacity="0" result="BackgroundImageFix"/>
<feGaussianBlur in="BackgroundImage" stdDeviation="7"/>
<feComposite in2="SourceAlpha" operator="in" result="effect1_backgroundBlur_2_462"/>
<feColorMatrix in="SourceAlpha" type="matrix" values="0 0 0 0 0 0 0 0 0 0 0 0 0 0 0 0 0 0 127 0" result="hardAlpha"/>
<feOffset dx="-21" dy="15"/>
<feGaussianBlur stdDeviation="25"/>
<feComposite in2="hardAlpha" operator="out"/>
<feColorMatrix type="matrix" values="0 0 0 0 0.113438 0 0 0 0 0.148981 0 0 0 0 0.275 0 0 0 0.1 0"/>
<feBlend mode="normal" in2="effect1_backgroundBlur_2_462" result="effect2_dropShadow_2_462"/>
<feColorMatrix in="SourceAlpha" type="matrix" values="0 0 0 0 0 0 0 0 0 0 0 0 0 0 0 0 0 0 127 0" result="hardAlpha"/>
<feOffset/>
<feGaussianBlur stdDeviation="19"/>
<feComposite in2="hardAlpha" operator="out"/>
<feColorMatrix type="matrix" values="0 0 0 0 0.619608 0 0 0 0 0.423529 0 0 0 0 1 0 0 0 0.2 0"/>
<feBlend mode="normal" in2="effect2_dropShadow_2_462" result="effect3_dropShadow_2_462"/>
<feBlend mode="normal" in="SourceGraphic" in2="effect3_dropShadow_2_462" result="shape"/>
</filter>
<filter id="filter1_bd_2_462" x="0" y="131.326" width="460.491" height="343.862" filterUnits="userSpaceOnUse" color-interpolation-filters="sRGB">
<feFlood flood-opacity="0" result="BackgroundImageFix"/>
<feGaussianBlur in="BackgroundImage" stdDeviation="7"/>
<feComposite in2="SourceAlpha" operator="in" result="effect1_backgroundBlur_2_462"/>
<feColorMatrix in="SourceAlpha" type="matrix" values="0 0 0 0 0 0 0 0 0 0 0 0 0 0 0 0 0 0 127 0" result="hardAlpha"/>
<feOffset dx="-21" dy="15"/>
<feGaussianBlur stdDeviation="25"/>
<feComposite in2="hardAlpha" operator="out"/>
<feColorMatrix type="matrix" values="0 0 0 0 0.113438 0 0 0 0 0.148981 0 0 0 0 0.275 0 0 0 0.1 0"/>
<feBlend mode="normal" in2="effect1_backgroundBlur_2_462" result="effect2_dropShadow_2_462"/>
<feBlend mode="normal" in="SourceGraphic" in2="effect2_dropShadow_2_462" result="shape"/>
</filter>
<linearGradient id="paint0_linear_2_462" x1="299.438" y1="67.9318" x2="423.234" y2="308.607" gradientUnits="userSpaceOnUse">
<stop offset="0.0001" stop-color="#D4C0FF"/>
<stop offset="1" stop-color="#7E2FFF"/>
</linearGradient>
<linearGradient id="paint1_linear_2_462" x1="313.996" y1="-64.9632" x2="392.247" y2="250.897" gradientUnits="userSpaceOnUse">
<stop stop-color="white"/>
<stop offset="1" stop-color="white" stop-opacity="0"/>
</linearGradient>
<linearGradient id="paint2_linear_2_462" x1="268.013" y1="173.662" x2="268.013" y2="437.743" gradientUnits="userSpaceOnUse">
<stop stop-color="white"/>
<stop offset="1" stop-color="white" stop-opacity="0"/>
</linearGradient>
<linearGradient id="paint3_linear_2_462" x1="251.246" y1="166.326" x2="251.246" y2="410.189" gradientUnits="userSpaceOnUse">
<stop stop-color="white"/>
<stop offset="1" stop-color="white" stop-opacity="0"/>
</linearGradient>
</defs>
</svg>
