<svg width="537" height="484" viewBox="0 0 537 484" fill="none" xmlns="http://www.w3.org/2000/svg">
<g filter="url(#filter0_bdd_2_456)">
<mask id="path-1-inside-1_2_456" fill="white">
<path fill-rule="evenodd" clip-rule="evenodd" d="M277.676 38.9558C281.136 38.4955 283.183 42.5719 281.222 45.4602C265.681 68.3515 262.812 98.8035 276.359 125.14C294.155 159.739 334.205 175.42 370.036 163.696C373.357 162.61 376.71 165.71 375.306 168.909C367.006 187.815 352.402 204.099 332.609 214.28C286.828 237.828 230.625 219.805 207.076 174.023C183.527 128.242 201.551 72.0388 247.332 48.4902C257.111 43.4602 267.365 40.3269 277.676 38.9558Z"/>
</mask>
<path fill-rule="evenodd" clip-rule="evenodd" d="M277.676 38.9558C281.136 38.4955 283.183 42.5719 281.222 45.4602C265.681 68.3515 262.812 98.8035 276.359 125.14C294.155 159.739 334.205 175.42 370.036 163.696C373.357 162.61 376.71 165.71 375.306 168.909C367.006 187.815 352.402 204.099 332.609 214.28C286.828 237.828 230.625 219.805 207.076 174.023C183.527 128.242 201.551 72.0388 247.332 48.4902C257.111 43.4602 267.365 40.3269 277.676 38.9558Z" fill="url(#paint0_linear_2_456)"/>
<path d="M370.036 163.696L370.658 165.597L370.036 163.696ZM375.306 168.909L373.475 168.105L375.306 168.909ZM281.222 45.4602L279.567 44.3369L281.222 45.4602ZM277.676 38.9558L277.412 36.9732L277.676 38.9558ZM278.137 124.225C264.939 98.5654 267.73 68.8937 282.877 46.5836L279.567 44.3369C263.632 67.8093 260.685 99.0417 274.58 126.055L278.137 124.225ZM369.415 161.796C334.502 173.219 295.477 157.936 278.137 124.225L274.58 126.055C292.833 161.541 333.908 177.622 370.658 165.597L369.415 161.796ZM373.475 168.105C365.352 186.606 351.064 202.538 331.694 212.501L333.524 216.058C353.739 205.66 368.659 189.024 377.137 169.713L373.475 168.105ZM331.694 212.501C286.895 235.544 231.898 217.908 208.855 173.109L205.297 174.938C229.351 221.702 286.76 240.112 333.524 216.058L331.694 212.501ZM208.855 173.109C185.811 128.309 203.448 73.312 248.247 50.2687L246.417 46.7117C199.654 70.7655 181.244 128.174 205.297 174.938L208.855 173.109ZM248.247 50.2687C257.819 45.345 267.853 42.2797 277.939 40.9383L277.412 36.9732C266.878 38.3742 256.403 41.5754 246.417 46.7117L248.247 50.2687ZM370.658 165.597C371.566 165.3 372.472 165.573 373.055 166.135C373.612 166.672 373.797 167.371 373.475 168.105L377.137 169.713C378.22 167.247 377.43 164.797 375.831 163.256C374.259 161.74 371.828 161.006 369.415 161.796L370.658 165.597ZM282.877 46.5836C284.302 44.4842 284.27 41.9471 283.25 40.0176C282.213 38.0551 280.079 36.6185 277.412 36.9732L277.939 40.9383C278.733 40.8328 279.353 41.2043 279.714 41.8869C280.092 42.6026 280.103 43.5479 279.567 44.3369L282.877 46.5836Z" fill="url(#paint1_linear_2_456)" mask="url(#path-1-inside-1_2_456)"/>
</g>
<mask id="mask0_2_456" style="mask-type:alpha" maskUnits="userSpaceOnUse" x="234" y="157" width="171" height="123">
<path d="M404.5 194.623C404.5 241.463 366.528 279.435 319.688 279.435C272.847 279.435 234.875 241.463 234.875 194.623C234.875 147.782 266.378 158.685 313.219 158.685C360.059 158.685 404.5 147.782 404.5 194.623Z" fill="url(#paint2_linear_2_456)"/>
</mask>
<g mask="url(#mask0_2_456)">
<g filter="url(#filter1_f_2_456)">
<path fill-rule="evenodd" clip-rule="evenodd" d="M169.472 411.681C169.232 411.684 168.991 411.685 168.75 411.685C134.612 411.685 106.938 384.011 106.938 349.873C106.938 315.735 134.612 288.06 168.75 288.06C198.176 288.06 222.8 308.622 229.037 336.162L249.969 309.623L315.375 288.06H386.531V288.064C386.771 288.062 387.01 288.06 387.25 288.06C421.388 288.06 449.062 315.735 449.062 349.873C449.062 384.011 421.388 411.685 387.25 411.685C387.01 411.685 386.771 411.684 386.531 411.681V411.685H169.469L169.472 411.681Z" fill="#E18700"/>
</g>
</g>
<g filter="url(#filter2_bd_2_456)">
<mask id="path-5-inside-2_2_456" fill="white">
<path fill-rule="evenodd" clip-rule="evenodd" d="M350.594 418.869C350.833 418.871 351.073 418.873 351.312 418.873C385.451 418.873 413.125 391.198 413.125 357.06C413.125 322.922 385.451 295.248 351.312 295.248C351.073 295.248 350.833 295.249 350.594 295.252V295.248H334.625C335.202 291.018 335.5 286.699 335.5 282.31C335.5 229.912 293.023 187.435 240.625 187.435C188.227 187.435 145.75 229.912 145.75 282.31C145.75 287.254 146.128 292.11 146.857 296.85C142.345 295.802 137.644 295.248 132.812 295.248C98.6744 295.248 71 322.922 71 357.06C71 391.198 98.6744 418.873 132.812 418.873C133.053 418.873 133.294 418.871 133.535 418.869L133.531 418.873H350.594V418.869Z"/>
</mask>
<path fill-rule="evenodd" clip-rule="evenodd" d="M350.594 418.869C350.833 418.871 351.073 418.873 351.312 418.873C385.451 418.873 413.125 391.198 413.125 357.06C413.125 322.922 385.451 295.248 351.312 295.248C351.073 295.248 350.833 295.249 350.594 295.252V295.248H334.625C335.202 291.018 335.5 286.699 335.5 282.31C335.5 229.912 293.023 187.435 240.625 187.435C188.227 187.435 145.75 229.912 145.75 282.31C145.75 287.254 146.128 292.11 146.857 296.85C142.345 295.802 137.644 295.248 132.812 295.248C98.6744 295.248 71 322.922 71 357.06C71 391.198 98.6744 418.873 132.812 418.873C133.053 418.873 133.294 418.871 133.535 418.869L133.531 418.873H350.594V418.869Z" fill="url(#paint3_linear_2_456)" shape-rendering="crispEdges"/>
<path d="M350.594 418.869L350.617 416.869C350.082 416.863 349.568 417.071 349.188 417.446C348.808 417.822 348.594 418.334 348.594 418.869H350.594ZM350.594 295.252H348.594C348.594 295.786 348.808 296.298 349.188 296.674C349.568 297.05 350.082 297.258 350.617 297.252L350.594 295.252ZM350.594 295.248H352.594C352.594 294.143 351.698 293.248 350.594 293.248V295.248ZM334.625 295.248L332.644 294.978C332.566 295.55 332.739 296.128 333.119 296.563C333.498 296.998 334.048 297.248 334.625 297.248V295.248ZM146.857 296.85L146.405 298.798C147.051 298.949 147.73 298.768 148.217 298.317C148.704 297.866 148.935 297.202 148.834 296.546L146.857 296.85ZM133.535 418.869L135.106 420.106C135.582 419.501 135.669 418.676 135.329 417.985C134.989 417.294 134.282 416.86 133.512 416.869L133.535 418.869ZM133.531 418.873L131.96 417.635C131.486 418.237 131.397 419.057 131.732 419.746C132.066 420.435 132.765 420.873 133.531 420.873V418.873ZM350.594 418.873V420.873C351.698 420.873 352.594 419.977 352.594 418.873H350.594ZM350.571 420.869C350.818 420.871 351.065 420.873 351.312 420.873V416.873C351.08 416.873 350.848 416.871 350.617 416.869L350.571 420.869ZM351.312 420.873C386.555 420.873 415.125 392.303 415.125 357.06H411.125C411.125 390.094 384.346 416.873 351.312 416.873V420.873ZM415.125 357.06C415.125 321.818 386.555 293.248 351.312 293.248V297.248C384.346 297.248 411.125 324.027 411.125 357.06H415.125ZM351.312 293.248C351.065 293.248 350.818 293.249 350.571 293.252L350.617 297.252C350.848 297.249 351.08 297.248 351.312 297.248V293.248ZM348.594 295.248V295.252H352.594V295.248H348.594ZM334.625 297.248H350.594V293.248H334.625V297.248ZM336.607 295.518C337.196 291.199 337.5 286.789 337.5 282.31H333.5C333.5 286.608 333.208 290.837 332.644 294.978L336.607 295.518ZM337.5 282.31C337.5 228.808 294.128 185.435 240.625 185.435V189.435C291.918 189.435 333.5 231.017 333.5 282.31H337.5ZM240.625 185.435C187.122 185.435 143.75 228.808 143.75 282.31H147.75C147.75 231.017 189.332 189.435 240.625 189.435V185.435ZM143.75 282.31C143.75 287.357 144.136 292.314 144.88 297.154L148.834 296.546C148.12 291.906 147.75 287.152 147.75 282.31H143.75ZM147.31 294.902C142.65 293.82 137.797 293.248 132.812 293.248V297.248C137.49 297.248 142.04 297.784 146.405 298.798L147.31 294.902ZM132.812 293.248C97.5698 293.248 69 321.818 69 357.06H73C73 324.027 99.779 297.248 132.812 297.248V293.248ZM69 357.06C69 392.303 97.5698 420.873 132.812 420.873V416.873C99.779 416.873 73 390.094 73 357.06H69ZM132.812 420.873C133.061 420.873 133.309 420.871 133.557 420.869L133.512 416.869C133.279 416.871 133.046 416.873 132.812 416.873V420.873ZM135.102 420.11L135.106 420.106L131.963 417.631L131.96 417.635L135.102 420.11ZM350.594 416.873H133.531V420.873H350.594V416.873ZM348.594 418.869V418.873H352.594V418.869H348.594Z" fill="url(#paint4_linear_2_456)" mask="url(#path-5-inside-2_2_456)"/>
</g>
<g filter="url(#filter3_bd_2_456)">
<mask id="path-7-inside-3_2_456" fill="white">
<path fill-rule="evenodd" clip-rule="evenodd" d="M462.809 354.69C462.982 354.692 463.155 354.693 463.329 354.693C488 354.693 508 334.693 508 310.021C508 285.35 488 265.35 463.329 265.35C463.155 265.35 462.982 265.351 462.809 265.353V265.35H451.269C451.686 262.293 451.901 259.172 451.901 256C451.901 218.133 421.204 187.435 383.336 187.435C345.469 187.435 314.771 218.133 314.771 256C314.771 259.573 315.044 263.083 315.571 266.508C312.31 265.751 308.913 265.35 305.421 265.35C280.75 265.35 260.75 285.35 260.75 310.021C260.75 334.693 280.75 354.693 305.421 354.693C305.595 354.693 305.769 354.692 305.943 354.69L305.941 354.693H462.809V354.69Z"/>
</mask>
<path fill-rule="evenodd" clip-rule="evenodd" d="M462.809 354.69C462.982 354.692 463.155 354.693 463.329 354.693C488 354.693 508 334.693 508 310.021C508 285.35 488 265.35 463.329 265.35C463.155 265.35 462.982 265.351 462.809 265.353V265.35H451.269C451.686 262.293 451.901 259.172 451.901 256C451.901 218.133 421.204 187.435 383.336 187.435C345.469 187.435 314.771 218.133 314.771 256C314.771 259.573 315.044 263.083 315.571 266.508C312.31 265.751 308.913 265.35 305.421 265.35C280.75 265.35 260.75 285.35 260.75 310.021C260.75 334.693 280.75 354.693 305.421 354.693C305.595 354.693 305.769 354.692 305.943 354.69L305.941 354.693H462.809V354.69Z" fill="url(#paint5_linear_2_456)" shape-rendering="crispEdges"/>
<path d="M462.809 354.69L462.832 352.69C462.298 352.684 461.783 352.892 461.403 353.267C461.023 353.643 460.809 354.155 460.809 354.69H462.809ZM462.809 265.353H460.809C460.809 265.888 461.023 266.4 461.403 266.775C461.783 267.151 462.298 267.359 462.832 267.353L462.809 265.353ZM462.809 265.35H464.809C464.809 264.246 463.914 263.35 462.809 263.35V265.35ZM451.269 265.35L449.287 265.08C449.209 265.652 449.383 266.23 449.762 266.665C450.142 267.101 450.692 267.35 451.269 267.35V265.35ZM315.571 266.508L315.119 268.456C315.765 268.607 316.444 268.426 316.931 267.975C317.418 267.524 317.649 266.86 317.548 266.204L315.571 266.508ZM305.943 354.69L307.515 355.927C307.991 355.321 308.077 354.497 307.737 353.806C307.397 353.115 306.69 352.681 305.92 352.69L305.943 354.69ZM305.941 354.693L304.369 353.456C303.895 354.058 303.807 354.877 304.141 355.566C304.476 356.255 305.175 356.693 305.941 356.693V354.693ZM462.809 354.693V356.693C463.914 356.693 464.809 355.797 464.809 354.693H462.809ZM462.787 356.69C462.967 356.692 463.148 356.693 463.329 356.693V352.693C463.163 352.693 462.997 352.692 462.832 352.69L462.787 356.69ZM463.329 356.693C489.105 356.693 510 335.797 510 310.021H506C506 333.588 486.895 352.693 463.329 352.693V356.693ZM510 310.021C510 284.246 489.105 263.35 463.329 263.35V267.35C486.895 267.35 506 286.455 506 310.021H510ZM463.329 263.35C463.148 263.35 462.967 263.351 462.787 263.353L462.832 267.353C462.997 267.351 463.163 267.35 463.329 267.35V263.35ZM460.809 265.35V265.353H464.809V265.35H460.809ZM451.269 267.35H462.809V263.35H451.269V267.35ZM453.251 265.62C453.68 262.474 453.901 259.263 453.901 256H449.901C449.901 259.081 449.692 262.112 449.287 265.08L453.251 265.62ZM453.901 256C453.901 217.028 422.308 185.435 383.336 185.435V189.435C420.099 189.435 449.901 219.238 449.901 256H453.901ZM383.336 185.435C344.364 185.435 312.771 217.028 312.771 256H316.771C316.771 219.238 346.573 189.435 383.336 189.435V185.435ZM312.771 256C312.771 259.676 313.052 263.286 313.594 266.812L317.548 266.204C317.036 262.879 316.771 259.471 316.771 256H312.771ZM316.024 264.56C312.616 263.768 309.066 263.35 305.421 263.35V267.35C308.759 267.35 312.005 267.733 315.119 268.456L316.024 264.56ZM305.421 263.35C279.645 263.35 258.75 284.246 258.75 310.021H262.75C262.75 286.455 281.855 267.35 305.421 267.35V263.35ZM258.75 310.021C258.75 335.797 279.645 356.693 305.421 356.693V352.693C281.855 352.693 262.75 333.588 262.75 310.021H258.75ZM305.421 356.693C305.603 356.693 305.785 356.692 305.966 356.69L305.92 352.69C305.754 352.692 305.588 352.693 305.421 352.693V356.693ZM307.512 355.93L307.515 355.927L304.371 353.453L304.369 353.456L307.512 355.93ZM462.809 352.693H305.941V356.693H462.809V352.693ZM460.809 354.69V354.693H464.809V354.69H460.809Z" fill="url(#paint6_linear_2_456)" mask="url(#path-7-inside-3_2_456)"/>
</g>
<defs>
<filter id="filter0_bdd_2_456" x="125.733" y="0.919922" width="287.901" height="288.702" filterUnits="userSpaceOnUse" color-interpolation-filters="sRGB">
<feFlood flood-opacity="0" result="BackgroundImageFix"/>
<feGaussianBlur in="BackgroundImage" stdDeviation="7"/>
<feComposite in2="SourceAlpha" operator="in" result="effect1_backgroundBlur_2_456"/>
<feColorMatrix in="SourceAlpha" type="matrix" values="0 0 0 0 0 0 0 0 0 0 0 0 0 0 0 0 0 0 127 0" result="hardAlpha"/>
<feOffset dx="-21" dy="15"/>
<feGaussianBlur stdDeviation="25"/>
<feComposite in2="hardAlpha" operator="out"/>
<feColorMatrix type="matrix" values="0 0 0 0 0.113438 0 0 0 0 0.148981 0 0 0 0 0.275 0 0 0 0.1 0"/>
<feBlend mode="normal" in2="effect1_backgroundBlur_2_456" result="effect2_dropShadow_2_456"/>
<feColorMatrix in="SourceAlpha" type="matrix" values="0 0 0 0 0 0 0 0 0 0 0 0 0 0 0 0 0 0 127 0" result="hardAlpha"/>
<feOffset/>
<feGaussianBlur stdDeviation="19"/>
<feComposite in2="hardAlpha" operator="out"/>
<feColorMatrix type="matrix" values="0 0 0 0 0.619608 0 0 0 0 0.423529 0 0 0 0 1 0 0 0 0.2 0"/>
<feBlend mode="normal" in2="effect2_dropShadow_2_456" result="effect3_dropShadow_2_456"/>
<feBlend mode="normal" in="SourceGraphic" in2="effect3_dropShadow_2_456" result="shape"/>
</filter>
<filter id="filter1_f_2_456" x="92.9375" y="274.06" width="370.125" height="151.625" filterUnits="userSpaceOnUse" color-interpolation-filters="sRGB">
<feFlood flood-opacity="0" result="BackgroundImageFix"/>
<feBlend mode="normal" in="SourceGraphic" in2="BackgroundImageFix" result="shape"/>
<feGaussianBlur stdDeviation="7" result="effect1_foregroundBlur_2_456"/>
</filter>
<filter id="filter2_bd_2_456" x="0" y="152.435" width="442.125" height="331.438" filterUnits="userSpaceOnUse" color-interpolation-filters="sRGB">
<feFlood flood-opacity="0" result="BackgroundImageFix"/>
<feGaussianBlur in="BackgroundImage" stdDeviation="7"/>
<feComposite in2="SourceAlpha" operator="in" result="effect1_backgroundBlur_2_456"/>
<feColorMatrix in="SourceAlpha" type="matrix" values="0 0 0 0 0 0 0 0 0 0 0 0 0 0 0 0 0 0 127 0" result="hardAlpha"/>
<feOffset dx="-21" dy="15"/>
<feGaussianBlur stdDeviation="25"/>
<feComposite in2="hardAlpha" operator="out"/>
<feColorMatrix type="matrix" values="0 0 0 0 0.113725 0 0 0 0 0.14902 0 0 0 0 0.27451 0 0 0 0.1 0"/>
<feBlend mode="normal" in2="effect1_backgroundBlur_2_456" result="effect2_dropShadow_2_456"/>
<feBlend mode="normal" in="SourceGraphic" in2="effect2_dropShadow_2_456" result="shape"/>
</filter>
<filter id="filter3_bd_2_456" x="189.75" y="152.435" width="347.25" height="267.257" filterUnits="userSpaceOnUse" color-interpolation-filters="sRGB">
<feFlood flood-opacity="0" result="BackgroundImageFix"/>
<feGaussianBlur in="BackgroundImage" stdDeviation="7"/>
<feComposite in2="SourceAlpha" operator="in" result="effect1_backgroundBlur_2_456"/>
<feColorMatrix in="SourceAlpha" type="matrix" values="0 0 0 0 0 0 0 0 0 0 0 0 0 0 0 0 0 0 127 0" result="hardAlpha"/>
<feOffset dx="-21" dy="15"/>
<feGaussianBlur stdDeviation="25"/>
<feComposite in2="hardAlpha" operator="out"/>
<feColorMatrix type="matrix" values="0 0 0 0 0.113438 0 0 0 0 0.148981 0 0 0 0 0.275 0 0 0 0.1 0"/>
<feBlend mode="normal" in2="effect1_backgroundBlur_2_456" result="effect2_dropShadow_2_456"/>
<feBlend mode="normal" in="SourceGraphic" in2="effect2_dropShadow_2_456" result="shape"/>
</filter>
<linearGradient id="paint0_linear_2_456" x1="230.263" y1="59.117" x2="315.54" y2="224.906" gradientUnits="userSpaceOnUse">
<stop offset="0.0001" stop-color="#D4C0FF"/>
<stop offset="1" stop-color="#7E2FFF"/>
</linearGradient>
<linearGradient id="paint1_linear_2_456" x1="239.79" y1="-32.1698" x2="293.114" y2="185.415" gradientUnits="userSpaceOnUse">
<stop stop-color="white"/>
<stop offset="1" stop-color="white" stop-opacity="0"/>
</linearGradient>
<linearGradient id="paint2_linear_2_456" x1="319.688" y1="109.81" x2="319.688" y2="279.435" gradientUnits="userSpaceOnUse">
<stop stop-color="#FFD600"/>
<stop offset="1" stop-color="#FF7A00"/>
</linearGradient>
<linearGradient id="paint3_linear_2_456" x1="242.063" y1="113.404" x2="242.063" y2="451.217" gradientUnits="userSpaceOnUse">
<stop stop-color="white"/>
<stop offset="1" stop-color="white" stop-opacity="0"/>
</linearGradient>
<linearGradient id="paint4_linear_2_456" x1="242.062" y1="187.435" x2="242.062" y2="418.873" gradientUnits="userSpaceOnUse">
<stop stop-color="white"/>
<stop offset="1" stop-color="white" stop-opacity="0"/>
</linearGradient>
<linearGradient id="paint5_linear_2_456" x1="395.875" y1="192.467" x2="395.875" y2="373.592" gradientUnits="userSpaceOnUse">
<stop stop-color="white"/>
<stop offset="1" stop-color="white" stop-opacity="0"/>
</linearGradient>
<linearGradient id="paint6_linear_2_456" x1="384.375" y1="187.435" x2="384.375" y2="354.693" gradientUnits="userSpaceOnUse">
<stop stop-color="white"/>
<stop offset="1" stop-color="white" stop-opacity="0"/>
</linearGradient>
</defs>
</svg>
