<svg width="535" height="539" viewBox="0 0 535 539" fill="none" xmlns="http://www.w3.org/2000/svg">
<g filter="url(#filter0_bdd_2_564)">
<mask id="path-1-inside-1_2_564" fill="white">
<path fill-rule="evenodd" clip-rule="evenodd" d="M315.323 38.8673C318.783 38.4055 320.831 42.4818 318.871 45.3712C303.422 68.1537 300.576 98.449 314.054 124.652C331.762 159.079 371.605 174.69 407.263 163.045C410.584 161.96 413.937 165.06 412.531 168.259C404.266 187.062 389.735 203.256 370.047 213.383C324.475 236.824 268.529 218.883 245.088 173.311C221.647 127.739 239.588 71.7934 285.16 48.3526C294.881 43.3523 305.074 40.2351 315.323 38.8673Z"/>
</mask>
<path fill-rule="evenodd" clip-rule="evenodd" d="M315.323 38.8673C318.783 38.4055 320.831 42.4818 318.871 45.3712C303.422 68.1537 300.576 98.449 314.054 124.652C331.762 159.079 371.605 174.69 407.263 163.045C410.584 161.96 413.937 165.06 412.531 168.259C404.266 187.062 389.735 203.256 370.047 213.383C324.475 236.824 268.529 218.883 245.088 173.311C221.647 127.739 239.588 71.7934 285.16 48.3526C294.881 43.3523 305.074 40.2351 315.323 38.8673Z" fill="url(#paint0_linear_2_564)"/>
<path d="M407.263 163.045L407.884 164.946L407.263 163.045ZM412.531 168.259L414.362 169.063L412.531 168.259ZM318.871 45.3712L317.216 44.2487L318.871 45.3712ZM315.832 123.737C302.702 98.2105 305.471 68.6951 320.527 46.4937L317.216 44.2487C301.373 67.6123 298.449 98.6875 312.275 125.567L315.832 123.737ZM406.642 161.144C371.903 172.489 333.084 157.277 315.832 123.737L312.275 125.567C330.44 160.881 371.308 176.891 407.884 164.946L406.642 161.144ZM410.7 167.454C402.613 185.852 388.398 201.695 369.132 211.605L370.962 215.162C391.073 204.817 405.919 188.271 414.362 169.063L410.7 167.454ZM369.132 211.605C324.542 234.54 269.802 216.986 246.867 172.396L243.31 174.226C267.256 220.78 324.407 239.108 370.962 215.162L369.132 211.605ZM246.867 172.396C223.931 127.807 241.485 73.0666 286.075 50.1311L284.245 46.574C237.691 70.5201 219.363 127.672 243.31 174.226L246.867 172.396ZM286.075 50.1311C295.59 45.237 305.562 42.1877 315.588 40.8497L315.058 36.8849C304.586 38.2825 294.173 41.4677 284.245 46.574L286.075 50.1311ZM407.884 164.946C408.791 164.649 409.698 164.922 410.281 165.485C410.838 166.022 411.022 166.721 410.7 167.454L414.362 169.063C415.446 166.598 414.657 164.148 413.058 162.606C411.486 161.09 409.055 160.355 406.642 161.144L407.884 164.946ZM320.527 46.4937C321.951 44.3938 321.918 41.8568 320.898 39.9275C319.86 37.9651 317.726 36.5289 315.058 36.8849L315.588 40.8497C316.381 40.7439 317.001 41.1149 317.362 41.7975C317.74 42.5133 317.751 43.4592 317.216 44.2487L320.527 46.4937Z" fill="url(#paint1_linear_2_564)" mask="url(#path-1-inside-1_2_564)"/>
</g>
<g filter="url(#filter1_bd_2_564)">
<mask id="path-3-inside-2_2_564" fill="white">
<path fill-rule="evenodd" clip-rule="evenodd" d="M349.314 375.539C349.552 375.542 349.791 375.543 350.03 375.543C384.011 375.543 411.559 347.996 411.559 314.014C411.559 280.032 384.011 252.484 350.03 252.484C349.791 252.484 349.552 252.485 349.314 252.488V252.484H333.419C333.993 248.273 334.289 243.974 334.289 239.606C334.289 187.448 292.007 145.165 239.849 145.165C187.69 145.165 145.408 187.448 145.408 239.606C145.408 244.527 145.784 249.361 146.51 254.079C142.019 253.036 137.339 252.484 132.53 252.484C98.5477 252.484 71 280.032 71 314.014C71 347.996 98.5477 375.543 132.53 375.543C132.769 375.543 133.009 375.542 133.248 375.539L133.245 375.543H349.314V375.539Z"/>
</mask>
<path fill-rule="evenodd" clip-rule="evenodd" d="M349.314 375.539C349.552 375.542 349.791 375.543 350.03 375.543C384.011 375.543 411.559 347.996 411.559 314.014C411.559 280.032 384.011 252.484 350.03 252.484C349.791 252.484 349.552 252.485 349.314 252.488V252.484H333.419C333.993 248.273 334.289 243.974 334.289 239.606C334.289 187.448 292.007 145.165 239.849 145.165C187.69 145.165 145.408 187.448 145.408 239.606C145.408 244.527 145.784 249.361 146.51 254.079C142.019 253.036 137.339 252.484 132.53 252.484C98.5477 252.484 71 280.032 71 314.014C71 347.996 98.5477 375.543 132.53 375.543C132.769 375.543 133.009 375.542 133.248 375.539L133.245 375.543H349.314V375.539Z" fill="url(#paint2_linear_2_564)" shape-rendering="crispEdges"/>
<path d="M349.314 375.539L349.348 372.539C348.547 372.53 347.775 372.842 347.205 373.406C346.635 373.969 346.314 374.738 346.314 375.539H349.314ZM349.314 252.488H346.314C346.314 253.29 346.635 254.058 347.205 254.622C347.775 255.185 348.547 255.497 349.348 255.488L349.314 252.488ZM349.314 252.484H352.314C352.314 250.827 350.971 249.484 349.314 249.484V252.484ZM333.419 252.484L330.446 252.079C330.329 252.937 330.589 253.804 331.159 254.457C331.728 255.11 332.552 255.484 333.419 255.484V252.484ZM146.51 254.079L145.831 257.001C146.801 257.227 147.819 256.956 148.55 256.279C149.28 255.602 149.626 254.607 149.475 253.623L146.51 254.079ZM133.248 375.539L135.602 377.399C136.319 376.492 136.451 375.253 135.941 374.216C135.431 373.178 134.37 372.526 133.214 372.539L133.248 375.539ZM133.245 375.543L130.891 373.684C130.178 374.586 130.044 375.816 130.545 376.851C131.046 377.886 132.095 378.543 133.245 378.543V375.543ZM349.314 375.543V378.543C350.971 378.543 352.314 377.2 352.314 375.543H349.314ZM349.28 378.539C349.53 378.542 349.779 378.543 350.03 378.543V372.543C349.802 372.543 349.575 372.542 349.348 372.539L349.28 378.539ZM350.03 378.543C385.668 378.543 414.559 349.652 414.559 314.014H408.559C408.559 346.339 382.355 372.543 350.03 372.543V378.543ZM414.559 314.014C414.559 278.375 385.668 249.484 350.03 249.484V255.484C382.355 255.484 408.559 281.689 408.559 314.014H414.559ZM350.03 249.484C349.779 249.484 349.53 249.485 349.28 249.488L349.348 255.488C349.575 255.485 349.802 255.484 350.03 255.484V249.484ZM346.314 252.484V252.488H352.314V252.484H346.314ZM333.419 255.484H349.314V249.484H333.419V255.484ZM336.391 252.889C336.984 248.545 337.289 244.11 337.289 239.606H331.289C331.289 243.838 331.002 248.002 330.446 252.079L336.391 252.889ZM337.289 239.606C337.289 185.791 293.664 142.165 239.849 142.165V148.165C290.35 148.165 331.289 189.104 331.289 239.606H337.289ZM239.849 142.165C186.034 142.165 142.408 185.791 142.408 239.606H148.408C148.408 189.104 189.347 148.165 239.849 148.165V142.165ZM142.408 239.606C142.408 244.681 142.796 249.667 143.545 254.535L149.475 253.623C148.773 249.055 148.408 244.374 148.408 239.606H142.408ZM147.189 251.157C142.477 250.062 137.569 249.484 132.53 249.484V255.484C137.108 255.484 141.561 256.009 145.831 257.001L147.189 251.157ZM132.53 249.484C96.8909 249.484 68 278.375 68 314.014H74C74 281.689 100.205 255.484 132.53 255.484V249.484ZM68 314.014C68 349.652 96.8909 378.543 132.53 378.543V372.543C100.205 372.543 74 346.339 74 314.014H68ZM132.53 378.543C132.781 378.543 133.032 378.542 133.283 378.539L133.214 372.539C132.986 372.542 132.758 372.543 132.53 372.543V378.543ZM135.599 377.403L135.602 377.399L130.894 373.68L130.891 373.684L135.599 377.403ZM349.314 372.543H133.245V378.543H349.314V372.543ZM346.314 375.539V375.543H352.314V375.539H346.314Z" fill="url(#paint3_linear_2_564)" mask="url(#path-3-inside-2_2_564)"/>
</g>
<g filter="url(#filter2_bd_2_564)">
<mask id="path-5-inside-3_2_564" fill="white">
<path fill-rule="evenodd" clip-rule="evenodd" d="M461.016 311.654C461.188 311.656 461.361 311.657 461.533 311.657C486.092 311.657 506 291.748 506 267.19C506 242.632 486.092 222.723 461.533 222.723C461.361 222.723 461.188 222.724 461.016 222.726V222.723H449.529C449.944 219.68 450.158 216.573 450.158 213.416C450.158 175.722 419.601 145.165 381.907 145.165C344.212 145.165 313.655 175.722 313.655 213.416C313.655 216.973 313.927 220.466 314.452 223.876C311.206 223.122 307.824 222.723 304.348 222.723C279.79 222.723 259.882 242.632 259.882 267.19C259.882 291.748 279.79 311.657 304.348 311.657C304.522 311.657 304.695 311.656 304.868 311.654L304.865 311.657H461.016V311.654Z"/>
</mask>
<path fill-rule="evenodd" clip-rule="evenodd" d="M461.016 311.654C461.188 311.656 461.361 311.657 461.533 311.657C486.092 311.657 506 291.748 506 267.19C506 242.632 486.092 222.723 461.533 222.723C461.361 222.723 461.188 222.724 461.016 222.726V222.723H449.529C449.944 219.68 450.158 216.573 450.158 213.416C450.158 175.722 419.601 145.165 381.907 145.165C344.212 145.165 313.655 175.722 313.655 213.416C313.655 216.973 313.927 220.466 314.452 223.876C311.206 223.122 307.824 222.723 304.348 222.723C279.79 222.723 259.882 242.632 259.882 267.19C259.882 291.748 279.79 311.657 304.348 311.657C304.522 311.657 304.695 311.656 304.868 311.654L304.865 311.657H461.016V311.654Z" fill="url(#paint4_linear_2_564)" shape-rendering="crispEdges"/>
<path d="M461.016 311.654L461.05 308.654C460.249 308.645 459.477 308.957 458.907 309.52C458.337 310.084 458.016 310.852 458.016 311.654H461.016ZM461.016 222.726H458.016C458.016 223.528 458.337 224.296 458.907 224.86C459.477 225.423 460.249 225.735 461.05 225.726L461.016 222.726ZM461.016 222.723H464.016C464.016 221.066 462.673 219.723 461.016 219.723V222.723ZM449.529 222.723L446.556 222.318C446.439 223.176 446.699 224.043 447.269 224.696C447.838 225.349 448.662 225.723 449.529 225.723V222.723ZM314.452 223.876L313.773 226.798C314.743 227.024 315.761 226.753 316.491 226.076C317.222 225.399 317.568 224.404 317.417 223.42L314.452 223.876ZM304.868 311.654L307.225 313.509C307.94 312.602 308.069 311.364 307.559 310.328C307.048 309.292 305.988 308.641 304.833 308.654L304.868 311.654ZM304.865 311.657L302.508 309.801C301.797 310.704 301.665 311.933 302.167 312.967C302.668 314.001 303.716 314.657 304.865 314.657V311.657ZM461.016 311.657V314.657C462.673 314.657 464.016 313.314 464.016 311.657H461.016ZM460.982 314.654C461.166 314.656 461.349 314.657 461.533 314.657V308.657C461.372 308.657 461.211 308.656 461.05 308.654L460.982 314.654ZM461.533 314.657C487.748 314.657 509 293.405 509 267.19H503C503 290.091 484.435 308.657 461.533 308.657V314.657ZM509 267.19C509 240.975 487.748 219.723 461.533 219.723V225.723C484.435 225.723 503 244.289 503 267.19H509ZM461.533 219.723C461.349 219.723 461.165 219.724 460.982 219.726L461.05 225.726C461.211 225.724 461.372 225.723 461.533 225.723V219.723ZM458.016 222.723V222.726H464.016V222.723H458.016ZM449.529 225.723H461.016V219.723H449.529V225.723ZM452.501 223.129C452.934 219.952 453.158 216.709 453.158 213.416H447.158C447.158 216.437 446.953 219.409 446.556 222.318L452.501 223.129ZM453.158 213.416C453.158 174.065 421.258 142.165 381.907 142.165V148.165C417.944 148.165 447.158 177.379 447.158 213.416H453.158ZM381.907 142.165C342.556 142.165 310.655 174.065 310.655 213.416H316.655C316.655 177.379 345.869 148.165 381.907 148.165V142.165ZM310.655 213.416C310.655 217.126 310.939 220.772 311.487 224.332L317.417 223.42C316.916 220.161 316.655 216.82 316.655 213.416H310.655ZM315.131 220.954C311.664 220.148 308.054 219.723 304.348 219.723V225.723C307.594 225.723 310.748 226.095 313.773 226.798L315.131 220.954ZM304.348 219.723C278.133 219.723 256.882 240.975 256.882 267.19H262.882C262.882 244.289 281.447 225.723 304.348 225.723V219.723ZM256.882 267.19C256.882 293.405 278.133 314.657 304.348 314.657V308.657C281.447 308.657 262.882 290.091 262.882 267.19H256.882ZM304.348 314.657C304.533 314.657 304.718 314.656 304.902 314.654L304.833 308.654C304.672 308.656 304.51 308.657 304.348 308.657V314.657ZM307.223 313.512L307.225 313.509L302.51 309.798L302.508 309.801L307.223 313.512ZM461.016 308.657H304.865V314.657H461.016V308.657ZM458.016 311.654V311.657H464.016V311.654H458.016Z" fill="url(#paint5_linear_2_564)" mask="url(#path-5-inside-3_2_564)"/>
</g>
<g filter="url(#filter3_bdd_2_564)">
<path d="M169.4 357.469L171.603 388.31C172.471 400.466 160.879 409.713 149.22 406.167C137.562 402.62 133.083 388.485 140.573 378.872L159.576 354.48C162.673 350.505 169.041 352.442 169.4 357.469Z" fill="url(#paint6_linear_2_564)" stroke="url(#paint7_linear_2_564)" stroke-width="3"/>
<path d="M251.689 357.469L253.891 388.31C254.759 400.466 243.168 409.713 231.509 406.167C219.85 402.62 215.371 388.485 222.861 378.872L241.864 354.48C244.961 350.505 251.33 352.442 251.689 357.469Z" fill="url(#paint8_linear_2_564)" stroke="url(#paint9_linear_2_564)" stroke-width="3"/>
<path d="M333.977 357.469L336.18 388.31C337.048 400.466 325.456 409.713 313.797 406.167C302.138 402.62 297.66 388.485 305.149 378.872L324.153 354.48C327.25 350.505 333.618 352.442 333.977 357.469Z" fill="url(#paint10_linear_2_564)" stroke="url(#paint11_linear_2_564)" stroke-width="3"/>
</g>
<g filter="url(#filter4_bdd_2_564)">
<path d="M191.112 422.605L193.315 453.447C194.183 465.602 182.591 474.849 170.933 471.303C159.274 467.757 154.795 453.621 162.285 444.008L181.288 419.617C184.385 415.641 190.754 417.578 191.112 422.605Z" fill="url(#paint12_linear_2_564)" stroke="url(#paint13_linear_2_564)" stroke-width="3"/>
<path d="M260.637 422.605L262.839 453.447C263.707 465.602 252.115 474.849 240.457 471.303C228.798 467.757 224.319 453.621 231.809 444.008L250.812 419.617C253.909 415.641 260.278 417.578 260.637 422.605Z" fill="url(#paint14_linear_2_564)" stroke="url(#paint15_linear_2_564)" stroke-width="3"/>
</g>
<defs>
<filter id="filter0_bdd_2_564" x="163.793" y="0.831055" width="287.067" height="287.848" filterUnits="userSpaceOnUse" color-interpolation-filters="sRGB">
<feFlood flood-opacity="0" result="BackgroundImageFix"/>
<feGaussianBlur in="BackgroundImage" stdDeviation="7"/>
<feComposite in2="SourceAlpha" operator="in" result="effect1_backgroundBlur_2_564"/>
<feColorMatrix in="SourceAlpha" type="matrix" values="0 0 0 0 0 0 0 0 0 0 0 0 0 0 0 0 0 0 127 0" result="hardAlpha"/>
<feOffset dx="-21" dy="15"/>
<feGaussianBlur stdDeviation="25"/>
<feComposite in2="hardAlpha" operator="out"/>
<feColorMatrix type="matrix" values="0 0 0 0 0.113438 0 0 0 0 0.148981 0 0 0 0 0.275 0 0 0 0.1 0"/>
<feBlend mode="normal" in2="effect1_backgroundBlur_2_564" result="effect2_dropShadow_2_564"/>
<feColorMatrix in="SourceAlpha" type="matrix" values="0 0 0 0 0 0 0 0 0 0 0 0 0 0 0 0 0 0 127 0" result="hardAlpha"/>
<feOffset/>
<feGaussianBlur stdDeviation="19"/>
<feComposite in2="hardAlpha" operator="out"/>
<feColorMatrix type="matrix" values="0 0 0 0 0.619608 0 0 0 0 0.423529 0 0 0 0 1 0 0 0 0.2 0"/>
<feBlend mode="normal" in2="effect2_dropShadow_2_564" result="effect3_dropShadow_2_564"/>
<feBlend mode="normal" in="SourceGraphic" in2="effect3_dropShadow_2_564" result="shape"/>
</filter>
<filter id="filter1_bd_2_564" x="0" y="110.165" width="440.559" height="330.378" filterUnits="userSpaceOnUse" color-interpolation-filters="sRGB">
<feFlood flood-opacity="0" result="BackgroundImageFix"/>
<feGaussianBlur in="BackgroundImage" stdDeviation="7"/>
<feComposite in2="SourceAlpha" operator="in" result="effect1_backgroundBlur_2_564"/>
<feColorMatrix in="SourceAlpha" type="matrix" values="0 0 0 0 0 0 0 0 0 0 0 0 0 0 0 0 0 0 127 0" result="hardAlpha"/>
<feOffset dx="-21" dy="15"/>
<feGaussianBlur stdDeviation="25"/>
<feComposite in2="hardAlpha" operator="out"/>
<feColorMatrix type="matrix" values="0 0 0 0 0.113725 0 0 0 0 0.14902 0 0 0 0 0.27451 0 0 0 0.1 0"/>
<feBlend mode="normal" in2="effect1_backgroundBlur_2_564" result="effect2_dropShadow_2_564"/>
<feBlend mode="normal" in="SourceGraphic" in2="effect2_dropShadow_2_564" result="shape"/>
</filter>
<filter id="filter2_bd_2_564" x="188.882" y="110.165" width="346.118" height="266.492" filterUnits="userSpaceOnUse" color-interpolation-filters="sRGB">
<feFlood flood-opacity="0" result="BackgroundImageFix"/>
<feGaussianBlur in="BackgroundImage" stdDeviation="7"/>
<feComposite in2="SourceAlpha" operator="in" result="effect1_backgroundBlur_2_564"/>
<feColorMatrix in="SourceAlpha" type="matrix" values="0 0 0 0 0 0 0 0 0 0 0 0 0 0 0 0 0 0 127 0" result="hardAlpha"/>
<feOffset dx="-21" dy="15"/>
<feGaussianBlur stdDeviation="25"/>
<feComposite in2="hardAlpha" operator="out"/>
<feColorMatrix type="matrix" values="0 0 0 0 0.113438 0 0 0 0 0.148981 0 0 0 0 0.275 0 0 0 0.1 0"/>
<feBlend mode="normal" in2="effect1_backgroundBlur_2_564" result="effect2_dropShadow_2_564"/>
<feBlend mode="normal" in="SourceGraphic" in2="effect2_dropShadow_2_564" result="shape"/>
</filter>
<filter id="filter3_bdd_2_564" x="64.394" y="302.851" width="314.332" height="170.583" filterUnits="userSpaceOnUse" color-interpolation-filters="sRGB">
<feFlood flood-opacity="0" result="BackgroundImageFix"/>
<feGaussianBlur in="BackgroundImage" stdDeviation="7"/>
<feComposite in2="SourceAlpha" operator="in" result="effect1_backgroundBlur_2_564"/>
<feColorMatrix in="SourceAlpha" type="matrix" values="0 0 0 0 0 0 0 0 0 0 0 0 0 0 0 0 0 0 127 0" result="hardAlpha"/>
<feOffset dx="-21" dy="15"/>
<feGaussianBlur stdDeviation="25"/>
<feComposite in2="hardAlpha" operator="out"/>
<feColorMatrix type="matrix" values="0 0 0 0 0.113438 0 0 0 0 0.148981 0 0 0 0 0.275 0 0 0 0.1 0"/>
<feBlend mode="normal" in2="effect1_backgroundBlur_2_564" result="effect2_dropShadow_2_564"/>
<feColorMatrix in="SourceAlpha" type="matrix" values="0 0 0 0 0 0 0 0 0 0 0 0 0 0 0 0 0 0 127 0" result="hardAlpha"/>
<feOffset dy="-7"/>
<feGaussianBlur stdDeviation="20.5"/>
<feComposite in2="hardAlpha" operator="out"/>
<feColorMatrix type="matrix" values="0 0 0 0 0.1375 0 0 0 0 0.74125 0 0 0 0 1 0 0 0 0.3 0"/>
<feBlend mode="normal" in2="effect2_dropShadow_2_564" result="effect3_dropShadow_2_564"/>
<feBlend mode="normal" in="SourceGraphic" in2="effect3_dropShadow_2_564" result="shape"/>
</filter>
<filter id="filter4_bdd_2_564" x="86.1062" y="367.987" width="219.279" height="170.583" filterUnits="userSpaceOnUse" color-interpolation-filters="sRGB">
<feFlood flood-opacity="0" result="BackgroundImageFix"/>
<feGaussianBlur in="BackgroundImage" stdDeviation="7"/>
<feComposite in2="SourceAlpha" operator="in" result="effect1_backgroundBlur_2_564"/>
<feColorMatrix in="SourceAlpha" type="matrix" values="0 0 0 0 0 0 0 0 0 0 0 0 0 0 0 0 0 0 127 0" result="hardAlpha"/>
<feOffset dx="-21" dy="15"/>
<feGaussianBlur stdDeviation="25"/>
<feComposite in2="hardAlpha" operator="out"/>
<feColorMatrix type="matrix" values="0 0 0 0 0.113438 0 0 0 0 0.148981 0 0 0 0 0.275 0 0 0 0.1 0"/>
<feBlend mode="normal" in2="effect1_backgroundBlur_2_564" result="effect2_dropShadow_2_564"/>
<feColorMatrix in="SourceAlpha" type="matrix" values="0 0 0 0 0 0 0 0 0 0 0 0 0 0 0 0 0 0 127 0" result="hardAlpha"/>
<feOffset dy="-7"/>
<feGaussianBlur stdDeviation="20.5"/>
<feComposite in2="hardAlpha" operator="out"/>
<feColorMatrix type="matrix" values="0 0 0 0 0.1375 0 0 0 0 0.74125 0 0 0 0 1 0 0 0 0.3 0"/>
<feBlend mode="normal" in2="effect2_dropShadow_2_564" result="effect3_dropShadow_2_564"/>
<feBlend mode="normal" in="SourceGraphic" in2="effect3_dropShadow_2_564" result="shape"/>
</filter>
<linearGradient id="paint0_linear_2_564" x1="268.158" y1="58.9363" x2="353.044" y2="223.967" gradientUnits="userSpaceOnUse">
<stop offset="0.0001" stop-color="#D4C0FF"/>
<stop offset="1" stop-color="#7E2FFF"/>
</linearGradient>
<linearGradient id="paint1_linear_2_564" x1="277.634" y1="-31.9288" x2="330.705" y2="184.661" gradientUnits="userSpaceOnUse">
<stop stop-color="white"/>
<stop offset="1" stop-color="white" stop-opacity="0"/>
</linearGradient>
<linearGradient id="paint2_linear_2_564" x1="241.28" y1="71.4726" x2="241.28" y2="407.739" gradientUnits="userSpaceOnUse">
<stop stop-color="white"/>
<stop offset="1" stop-color="white" stop-opacity="0"/>
</linearGradient>
<linearGradient id="paint3_linear_2_564" x1="241.28" y1="145.165" x2="241.28" y2="375.543" gradientUnits="userSpaceOnUse">
<stop stop-color="white"/>
<stop offset="1" stop-color="white" stop-opacity="0"/>
</linearGradient>
<linearGradient id="paint4_linear_2_564" x1="394.388" y1="150.173" x2="394.388" y2="330.469" gradientUnits="userSpaceOnUse">
<stop stop-color="white"/>
<stop offset="1" stop-color="white" stop-opacity="0"/>
</linearGradient>
<linearGradient id="paint5_linear_2_564" x1="382.941" y1="145.165" x2="382.941" y2="311.657" gradientUnits="userSpaceOnUse">
<stop stop-color="white"/>
<stop offset="1" stop-color="white" stop-opacity="0"/>
</linearGradient>
<linearGradient id="paint6_linear_2_564" x1="169.598" y1="339.176" x2="148.784" y2="407.602" gradientUnits="userSpaceOnUse">
<stop stop-color="#138EFF"/>
<stop offset="1" stop-color="#00E0FF"/>
</linearGradient>
<linearGradient id="paint7_linear_2_564" x1="169.598" y1="339.176" x2="148.784" y2="407.602" gradientUnits="userSpaceOnUse">
<stop stop-color="white"/>
<stop offset="1" stop-color="white" stop-opacity="0"/>
</linearGradient>
<linearGradient id="paint8_linear_2_564" x1="251.886" y1="339.176" x2="231.072" y2="407.602" gradientUnits="userSpaceOnUse">
<stop stop-color="#138EFF"/>
<stop offset="1" stop-color="#00E0FF"/>
</linearGradient>
<linearGradient id="paint9_linear_2_564" x1="251.886" y1="339.176" x2="231.072" y2="407.602" gradientUnits="userSpaceOnUse">
<stop stop-color="white"/>
<stop offset="1" stop-color="white" stop-opacity="0"/>
</linearGradient>
<linearGradient id="paint10_linear_2_564" x1="334.175" y1="339.176" x2="313.361" y2="407.602" gradientUnits="userSpaceOnUse">
<stop stop-color="#138EFF"/>
<stop offset="1" stop-color="#00E0FF"/>
</linearGradient>
<linearGradient id="paint11_linear_2_564" x1="334.175" y1="339.176" x2="313.361" y2="407.602" gradientUnits="userSpaceOnUse">
<stop stop-color="white"/>
<stop offset="1" stop-color="white" stop-opacity="0"/>
</linearGradient>
<linearGradient id="paint12_linear_2_564" x1="191.31" y1="404.312" x2="170.496" y2="472.738" gradientUnits="userSpaceOnUse">
<stop stop-color="#138EFF"/>
<stop offset="1" stop-color="#00E0FF"/>
</linearGradient>
<linearGradient id="paint13_linear_2_564" x1="191.31" y1="404.312" x2="170.496" y2="472.738" gradientUnits="userSpaceOnUse">
<stop stop-color="white"/>
<stop offset="1" stop-color="white" stop-opacity="0"/>
</linearGradient>
<linearGradient id="paint14_linear_2_564" x1="260.834" y1="404.312" x2="240.02" y2="472.738" gradientUnits="userSpaceOnUse">
<stop stop-color="#138EFF"/>
<stop offset="1" stop-color="#00E0FF"/>
</linearGradient>
<linearGradient id="paint15_linear_2_564" x1="260.834" y1="404.312" x2="240.02" y2="472.738" gradientUnits="userSpaceOnUse">
<stop stop-color="white"/>
<stop offset="1" stop-color="white" stop-opacity="0"/>
</linearGradient>
</defs>
</svg>
