<svg width="549" height="433" viewBox="0 0 549 433" fill="none" xmlns="http://www.w3.org/2000/svg">
<g filter="url(#filter0_f_2_26)">
<circle cx="326.516" cy="134.095" r="90.0954" fill="#FFC701" fill-opacity="0.5"/>
</g>
<circle cx="326.516" cy="137.049" r="86.1414" fill="url(#paint0_linear_2_26)" stroke="url(#paint1_linear_2_26)" stroke-width="2"/>
<mask id="mask0_2_26" style="mask-type:alpha" maskUnits="userSpaceOnUse" x="239" y="98" width="175" height="127">
<path d="M413.658 137.049C413.658 185.176 374.643 224.191 326.516 224.191C278.39 224.191 239.375 185.176 239.375 137.049C239.375 88.9225 271.743 100.125 319.87 100.125C367.997 100.125 413.658 88.9225 413.658 137.049Z" fill="url(#paint2_linear_2_26)"/>
</mask>
<g mask="url(#mask0_2_26)">
<g filter="url(#filter1_f_2_26)">
<path fill-rule="evenodd" clip-rule="evenodd" d="M395.196 360.068C395.442 360.071 395.688 360.072 395.934 360.072C431.01 360.072 459.444 331.638 459.444 296.563C459.444 261.487 431.01 233.053 395.934 233.053C395.688 233.053 395.442 233.054 395.196 233.057V233.053H354.708C355.595 227.769 356.056 222.341 356.056 216.806C356.056 162.969 312.412 119.326 258.576 119.326C204.739 119.326 161.095 162.969 161.095 216.806C161.095 222.557 161.593 228.192 162.549 233.669C131.68 237.991 107.924 264.503 107.924 296.563C107.924 331.638 136.359 360.072 171.434 360.072C171.682 360.072 171.929 360.071 172.176 360.068L172.173 360.072H395.196V360.068Z" fill="#E18700"/>
</g>
</g>
<g filter="url(#filter2_bd_2_26)">
<mask id="path-5-inside-1_2_26" fill="white">
<path fill-rule="evenodd" clip-rule="evenodd" d="M358.271 367.453C358.517 367.456 358.763 367.457 359.01 367.457C394.085 367.457 422.52 339.023 422.52 303.947C422.52 268.872 394.085 240.438 359.01 240.438C358.763 240.438 358.517 240.439 358.271 240.442V240.438H341.864C342.457 236.091 342.763 231.654 342.763 227.145C342.763 173.308 299.12 129.664 245.283 129.664C191.446 129.664 147.803 173.308 147.803 227.145C147.803 232.225 148.191 237.214 148.94 242.084C144.304 241.007 139.474 240.438 134.51 240.438C99.4343 240.438 71 268.872 71 303.947C71 339.023 99.4343 367.457 134.51 367.457C134.757 367.457 135.005 367.456 135.252 367.453L135.248 367.457H358.271V367.453Z"/>
</mask>
<path fill-rule="evenodd" clip-rule="evenodd" d="M358.271 367.453C358.517 367.456 358.763 367.457 359.01 367.457C394.085 367.457 422.52 339.023 422.52 303.947C422.52 268.872 394.085 240.438 359.01 240.438C358.763 240.438 358.517 240.439 358.271 240.442V240.438H341.864C342.457 236.091 342.763 231.654 342.763 227.145C342.763 173.308 299.12 129.664 245.283 129.664C191.446 129.664 147.803 173.308 147.803 227.145C147.803 232.225 148.191 237.214 148.94 242.084C144.304 241.007 139.474 240.438 134.51 240.438C99.4343 240.438 71 268.872 71 303.947C71 339.023 99.4343 367.457 134.51 367.457C134.757 367.457 135.005 367.456 135.252 367.453L135.248 367.457H358.271V367.453Z" fill="url(#paint3_linear_2_26)" shape-rendering="crispEdges"/>
<path d="M358.271 367.453L358.294 365.453C357.76 365.447 357.245 365.655 356.865 366.031C356.485 366.406 356.271 366.919 356.271 367.453H358.271ZM358.271 240.442H356.271C356.271 240.976 356.485 241.488 356.865 241.864C357.245 242.24 357.76 242.448 358.294 242.442L358.271 240.442ZM358.271 240.438H360.271C360.271 239.333 359.376 238.438 358.271 238.438V240.438ZM341.864 240.438L339.883 240.167C339.805 240.74 339.978 241.318 340.358 241.753C340.737 242.188 341.287 242.438 341.864 242.438V240.438ZM148.94 242.084L148.488 244.032C149.134 244.182 149.813 244.002 150.3 243.551C150.787 243.1 151.018 242.436 150.917 241.78L148.94 242.084ZM135.252 367.453L136.821 368.692C137.299 368.088 137.387 367.262 137.047 366.571C136.707 365.879 135.999 365.444 135.229 365.453L135.252 367.453ZM135.248 367.457L133.679 366.218C133.204 366.819 133.114 367.64 133.449 368.329C133.783 369.019 134.482 369.457 135.248 369.457V367.457ZM358.271 367.457V369.457C359.376 369.457 360.271 368.562 360.271 367.457H358.271ZM358.249 369.453C358.502 369.456 358.756 369.457 359.01 369.457V365.457C358.771 365.457 358.532 365.456 358.294 365.453L358.249 369.453ZM359.01 369.457C395.19 369.457 424.52 340.127 424.52 303.947H420.52C420.52 337.918 392.981 365.457 359.01 365.457V369.457ZM424.52 303.947C424.52 267.767 395.19 238.438 359.01 238.438V242.438C392.981 242.438 420.52 269.976 420.52 303.947H424.52ZM359.01 238.438C358.756 238.438 358.502 238.439 358.249 238.442L358.294 242.442C358.532 242.439 358.771 242.438 359.01 242.438V238.438ZM356.271 240.438V240.442H360.271V240.438H356.271ZM341.864 242.438H358.271V238.438H341.864V242.438ZM343.846 240.708C344.451 236.272 344.763 231.744 344.763 227.145H340.763C340.763 231.563 340.463 235.91 339.883 240.167L343.846 240.708ZM344.763 227.145C344.763 172.203 300.224 127.664 245.283 127.664V131.664C298.015 131.664 340.763 174.412 340.763 227.145H344.763ZM245.283 127.664C190.341 127.664 145.803 172.203 145.803 227.145H149.803C149.803 174.412 192.551 131.664 245.283 131.664V127.664ZM145.803 227.145C145.803 232.327 146.199 237.418 146.963 242.388L150.917 241.78C150.183 237.01 149.803 232.123 149.803 227.145H145.803ZM149.393 240.136C144.61 239.025 139.627 238.438 134.51 238.438V242.438C139.32 242.438 143.999 242.989 148.488 244.032L149.393 240.136ZM134.51 238.438C98.3298 238.438 69 267.767 69 303.947H73C73 269.976 100.539 242.438 134.51 242.438V238.438ZM69 303.947C69 340.127 98.3298 369.457 134.51 369.457V365.457C100.539 365.457 73 337.918 73 303.947H69ZM134.51 369.457C134.765 369.457 135.02 369.456 135.275 369.453L135.229 365.453C134.989 365.456 134.75 365.457 134.51 365.457V369.457ZM136.818 368.697L136.821 368.692L133.682 366.214L133.679 366.218L136.818 368.697ZM358.271 365.457H135.248V369.457H358.271V365.457ZM356.271 367.453V367.457H360.271V367.453H356.271Z" fill="url(#paint4_linear_2_26)" mask="url(#path-5-inside-1_2_26)"/>
</g>
<g filter="url(#filter3_bd_2_26)">
<mask id="path-7-inside-2_2_26" fill="white">
<path fill-rule="evenodd" clip-rule="evenodd" d="M473.568 301.512C473.746 301.514 473.924 301.515 474.102 301.515C499.451 301.515 520 280.966 520 255.617C520 230.268 499.451 209.719 474.102 209.719C473.924 209.719 473.746 209.72 473.568 209.722V209.719H461.711C462.14 206.578 462.361 203.371 462.361 200.112C462.361 161.205 430.82 129.664 391.913 129.664C353.006 129.664 321.465 161.205 321.465 200.112C321.465 203.784 321.746 207.389 322.287 210.909C318.937 210.13 315.446 209.719 311.858 209.719C286.51 209.719 265.961 230.268 265.961 255.617C265.961 280.966 286.51 301.515 311.858 301.515C312.037 301.515 312.216 301.514 312.394 301.512L312.392 301.515H473.568V301.512Z"/>
</mask>
<path fill-rule="evenodd" clip-rule="evenodd" d="M473.568 301.512C473.746 301.514 473.924 301.515 474.102 301.515C499.451 301.515 520 280.966 520 255.617C520 230.268 499.451 209.719 474.102 209.719C473.924 209.719 473.746 209.72 473.568 209.722V209.719H461.711C462.14 206.578 462.361 203.371 462.361 200.112C462.361 161.205 430.82 129.664 391.913 129.664C353.006 129.664 321.465 161.205 321.465 200.112C321.465 203.784 321.746 207.389 322.287 210.909C318.937 210.13 315.446 209.719 311.858 209.719C286.51 209.719 265.961 230.268 265.961 255.617C265.961 280.966 286.51 301.515 311.858 301.515C312.037 301.515 312.216 301.514 312.394 301.512L312.392 301.515H473.568V301.512Z" fill="url(#paint5_linear_2_26)" shape-rendering="crispEdges"/>
<path d="M473.568 301.512L473.591 299.512C473.057 299.506 472.542 299.714 472.162 300.089C471.782 300.465 471.568 300.977 471.568 301.512H473.568ZM473.568 209.722H471.568C471.568 210.256 471.782 210.769 472.162 211.144C472.542 211.52 473.057 211.728 473.591 211.722L473.568 209.722ZM473.568 209.719H475.568C475.568 208.614 474.673 207.719 473.568 207.719V209.719ZM461.711 209.719L459.73 209.449C459.652 210.021 459.825 210.599 460.205 211.034C460.584 211.469 461.134 211.719 461.711 211.719V209.719ZM322.287 210.909L321.834 212.857C322.481 213.007 323.16 212.827 323.647 212.376C324.134 211.924 324.365 211.261 324.264 210.605L322.287 210.909ZM312.394 301.512L313.965 302.75C314.442 302.145 314.529 301.32 314.189 300.629C313.849 299.937 313.142 299.503 312.372 299.512L312.394 301.512ZM312.392 301.515L310.822 300.276C310.347 300.878 310.258 301.698 310.593 302.387C310.927 303.077 311.626 303.515 312.392 303.515V301.515ZM473.568 301.515V303.515C474.673 303.515 475.568 302.619 475.568 301.515H473.568ZM473.546 303.512C473.731 303.514 473.916 303.515 474.102 303.515V299.515C473.932 299.515 473.761 299.514 473.591 299.512L473.546 303.512ZM474.102 303.515C500.555 303.515 522 282.07 522 255.617H518C518 279.861 498.346 299.515 474.102 299.515V303.515ZM522 255.617C522 229.164 500.555 207.719 474.102 207.719V211.719C498.346 211.719 518 231.373 518 255.617H522ZM474.102 207.719C473.916 207.719 473.731 207.72 473.546 207.722L473.591 211.722C473.761 211.72 473.932 211.719 474.102 211.719V207.719ZM471.568 209.719V209.722H475.568V209.719H471.568ZM461.711 211.719H473.568V207.719H461.711V211.719ZM463.693 209.989C464.133 206.759 464.361 203.462 464.361 200.112H460.361C460.361 203.28 460.146 206.397 459.73 209.449L463.693 209.989ZM464.361 200.112C464.361 160.101 431.925 127.664 391.913 127.664V131.664C429.716 131.664 460.361 162.31 460.361 200.112H464.361ZM391.913 127.664C351.901 127.664 319.465 160.101 319.465 200.112H323.465C323.465 162.31 354.11 131.664 391.913 131.664V127.664ZM319.465 200.112C319.465 203.886 319.754 207.593 320.31 211.213L324.264 210.605C323.738 207.185 323.465 203.681 323.465 200.112H319.465ZM322.74 208.961C319.242 208.148 315.599 207.719 311.858 207.719V211.719C315.292 211.719 318.631 212.113 321.834 212.857L322.74 208.961ZM311.858 207.719C285.405 207.719 263.961 229.164 263.961 255.617H267.961C267.961 231.373 287.614 211.719 311.858 211.719V207.719ZM263.961 255.617C263.961 282.07 285.405 303.515 311.858 303.515V299.515C287.614 299.515 267.961 279.861 267.961 255.617H263.961ZM311.858 303.515C312.045 303.515 312.231 303.514 312.417 303.512L312.372 299.512C312.201 299.514 312.03 299.515 311.858 299.515V303.515ZM313.963 302.753L313.965 302.75L310.824 300.273L310.822 300.276L313.963 302.753ZM473.568 299.515H312.392V303.515H473.568V299.515ZM471.568 301.512V301.515H475.568V301.512H471.568Z" fill="url(#paint6_linear_2_26)" mask="url(#path-7-inside-2_2_26)"/>
</g>
<defs>
<filter id="filter0_f_2_26" x="192.421" y="0" width="268.191" height="268.191" filterUnits="userSpaceOnUse" color-interpolation-filters="sRGB">
<feFlood flood-opacity="0" result="BackgroundImageFix"/>
<feBlend mode="normal" in="SourceGraphic" in2="BackgroundImageFix" result="shape"/>
<feGaussianBlur stdDeviation="22" result="effect1_foregroundBlur_2_26"/>
</filter>
<filter id="filter1_f_2_26" x="93.9243" y="105.326" width="379.52" height="268.747" filterUnits="userSpaceOnUse" color-interpolation-filters="sRGB">
<feFlood flood-opacity="0" result="BackgroundImageFix"/>
<feBlend mode="normal" in="SourceGraphic" in2="BackgroundImageFix" result="shape"/>
<feGaussianBlur stdDeviation="7" result="effect1_foregroundBlur_2_26"/>
</filter>
<filter id="filter2_bd_2_26" x="0" y="94.6645" width="451.52" height="337.793" filterUnits="userSpaceOnUse" color-interpolation-filters="sRGB">
<feFlood flood-opacity="0" result="BackgroundImageFix"/>
<feGaussianBlur in="BackgroundImage" stdDeviation="7"/>
<feComposite in2="SourceAlpha" operator="in" result="effect1_backgroundBlur_2_26"/>
<feColorMatrix in="SourceAlpha" type="matrix" values="0 0 0 0 0 0 0 0 0 0 0 0 0 0 0 0 0 0 127 0" result="hardAlpha"/>
<feOffset dx="-21" dy="15"/>
<feGaussianBlur stdDeviation="25"/>
<feComposite in2="hardAlpha" operator="out"/>
<feColorMatrix type="matrix" values="0 0 0 0 0.113725 0 0 0 0 0.14902 0 0 0 0 0.27451 0 0 0 0.1 0"/>
<feBlend mode="normal" in2="effect1_backgroundBlur_2_26" result="effect2_dropShadow_2_26"/>
<feBlend mode="normal" in="SourceGraphic" in2="effect2_dropShadow_2_26" result="shape"/>
</filter>
<filter id="filter3_bd_2_26" x="194.961" y="94.6645" width="354.039" height="271.85" filterUnits="userSpaceOnUse" color-interpolation-filters="sRGB">
<feFlood flood-opacity="0" result="BackgroundImageFix"/>
<feGaussianBlur in="BackgroundImage" stdDeviation="7"/>
<feComposite in2="SourceAlpha" operator="in" result="effect1_backgroundBlur_2_26"/>
<feColorMatrix in="SourceAlpha" type="matrix" values="0 0 0 0 0 0 0 0 0 0 0 0 0 0 0 0 0 0 127 0" result="hardAlpha"/>
<feOffset dx="-21" dy="15"/>
<feGaussianBlur stdDeviation="25"/>
<feComposite in2="hardAlpha" operator="out"/>
<feColorMatrix type="matrix" values="0 0 0 0 0.113438 0 0 0 0 0.148981 0 0 0 0 0.275 0 0 0 0.1 0"/>
<feBlend mode="normal" in2="effect1_backgroundBlur_2_26" result="effect2_dropShadow_2_26"/>
<feBlend mode="normal" in="SourceGraphic" in2="effect2_dropShadow_2_26" result="shape"/>
</filter>
<linearGradient id="paint0_linear_2_26" x1="326.516" y1="49.9079" x2="326.516" y2="224.191" gradientUnits="userSpaceOnUse">
<stop stop-color="#FFE600"/>
<stop offset="1" stop-color="#FF7A00"/>
</linearGradient>
<linearGradient id="paint1_linear_2_26" x1="326.516" y1="49.9079" x2="326.516" y2="224.191" gradientUnits="userSpaceOnUse">
<stop stop-color="white"/>
<stop offset="1" stop-color="white" stop-opacity="0"/>
</linearGradient>
<linearGradient id="paint2_linear_2_26" x1="326.516" y1="49.9079" x2="326.516" y2="224.191" gradientUnits="userSpaceOnUse">
<stop stop-color="#FFD600"/>
<stop offset="1" stop-color="#FF7A00"/>
</linearGradient>
<linearGradient id="paint3_linear_2_26" x1="246.76" y1="53.6003" x2="246.76" y2="400.689" gradientUnits="userSpaceOnUse">
<stop stop-color="white"/>
<stop offset="1" stop-color="white" stop-opacity="0"/>
</linearGradient>
<linearGradient id="paint4_linear_2_26" x1="246.76" y1="129.664" x2="246.76" y2="367.457" gradientUnits="userSpaceOnUse">
<stop stop-color="white"/>
<stop offset="1" stop-color="white" stop-opacity="0"/>
</linearGradient>
<linearGradient id="paint5_linear_2_26" x1="404.796" y1="134.834" x2="404.796" y2="320.933" gradientUnits="userSpaceOnUse">
<stop stop-color="white"/>
<stop offset="1" stop-color="white" stop-opacity="0"/>
</linearGradient>
<linearGradient id="paint6_linear_2_26" x1="392.98" y1="129.664" x2="392.98" y2="301.515" gradientUnits="userSpaceOnUse">
<stop stop-color="white"/>
<stop offset="1" stop-color="white" stop-opacity="0"/>
</linearGradient>
</defs>
</svg>
