<svg width="465" height="465" viewBox="0 0 465 465" fill="none" xmlns="http://www.w3.org/2000/svg">
<g filter="url(#filter0_f_2_55)">
<circle cx="168.542" cy="168.542" r="124.542" fill="#FFC701" fill-opacity="0.5"/>
</g>
<circle cx="168.542" cy="172.625" r="119.458" fill="url(#paint0_linear_2_55)" stroke="url(#paint1_linear_2_55)" stroke-width="2"/>
<mask id="mask0_2_55" style="mask-type:alpha" maskUnits="userSpaceOnUse" x="48" y="120" width="241" height="174">
<path d="M289 172.625C289 239.152 235.069 293.083 168.542 293.083C102.014 293.083 48.0832 239.152 48.0832 172.625C48.0832 106.098 92.8267 121.583 159.354 121.583C225.881 121.583 289 106.098 289 172.625Z" fill="url(#paint2_linear_2_55)"/>
</mask>
<g mask="url(#mask0_2_55)">
<g filter="url(#filter1_f_2_55)">
<path fill-rule="evenodd" clip-rule="evenodd" d="M352.292 393.125C352.292 441.611 312.986 480.916 264.5 480.916C264.16 480.916 263.819 480.914 263.48 480.91V480.916H-44.8121L-44.8082 480.911C-45.1494 480.915 -45.4911 480.917 -45.8333 480.917C-94.3192 480.917 -133.625 441.611 -133.625 393.125C-133.625 344.639 -94.3192 305.334 -45.8333 305.334C-4.03983 305.334 30.9327 334.538 39.791 373.652L69.5213 335.958L162.417 305.333H263.48V305.339C263.819 305.335 264.16 305.333 264.5 305.333C312.986 305.333 352.292 344.639 352.292 393.125Z" fill="#E18700"/>
</g>
</g>
<g filter="url(#filter2_bd_2_55)">
<mask id="path-5-inside-1_2_55" fill="white">
<path fill-rule="evenodd" clip-rule="evenodd" d="M371.814 399.966C372.061 399.969 372.307 399.971 372.554 399.971C407.594 399.971 436 371.565 436 336.525C436 301.484 407.594 273.078 372.554 273.078C372.307 273.078 372.061 273.08 371.814 273.083V273.078H355.425C356.017 268.736 356.323 264.303 356.323 259.798C356.323 206.016 312.723 162.416 258.941 162.416C205.158 162.416 161.558 206.016 161.558 259.798C161.558 264.873 161.946 269.858 162.695 274.723C158.064 273.647 153.238 273.078 148.279 273.078C113.239 273.078 84.8331 301.484 84.8331 336.525C84.8331 371.565 113.239 399.971 148.279 399.971C148.526 399.971 148.773 399.969 149.019 399.966L149.016 399.971H371.814V399.966Z"/>
</mask>
<path fill-rule="evenodd" clip-rule="evenodd" d="M371.814 399.966C372.061 399.969 372.307 399.971 372.554 399.971C407.594 399.971 436 371.565 436 336.525C436 301.484 407.594 273.078 372.554 273.078C372.307 273.078 372.061 273.08 371.814 273.083V273.078H355.425C356.017 268.736 356.323 264.303 356.323 259.798C356.323 206.016 312.723 162.416 258.941 162.416C205.158 162.416 161.558 206.016 161.558 259.798C161.558 264.873 161.946 269.858 162.695 274.723C158.064 273.647 153.238 273.078 148.279 273.078C113.239 273.078 84.8331 301.484 84.8331 336.525C84.8331 371.565 113.239 399.971 148.279 399.971C148.526 399.971 148.773 399.969 149.019 399.966L149.016 399.971H371.814V399.966Z" fill="url(#paint3_linear_2_55)" shape-rendering="crispEdges"/>
<path d="M371.814 399.966L371.837 397.967C371.303 397.961 370.788 398.169 370.408 398.544C370.028 398.92 369.814 399.432 369.814 399.966H371.814ZM371.814 273.083H369.814C369.814 273.617 370.028 274.129 370.408 274.505C370.788 274.881 371.303 275.089 371.837 275.083L371.814 273.083ZM371.814 273.078H373.814C373.814 271.974 372.919 271.078 371.814 271.078V273.078ZM355.425 273.078L353.443 272.808C353.365 273.381 353.538 273.959 353.918 274.394C354.298 274.829 354.847 275.078 355.425 275.078V273.078ZM162.695 274.723L162.242 276.671C162.889 276.822 163.568 276.641 164.055 276.19C164.541 275.739 164.773 275.075 164.672 274.419L162.695 274.723ZM149.019 399.966L150.589 401.205C151.067 400.6 151.154 399.775 150.814 399.084C150.474 398.392 149.767 397.958 148.996 397.967L149.019 399.966ZM149.016 399.971L147.445 398.732C146.971 399.334 146.882 400.154 147.216 400.843C147.55 401.533 148.249 401.971 149.016 401.971V399.971ZM371.814 399.971V401.971C372.919 401.971 373.814 401.075 373.814 399.971H371.814ZM371.792 401.966C372.045 401.969 372.299 401.971 372.554 401.971V397.971C372.315 397.971 372.076 397.969 371.837 397.967L371.792 401.966ZM372.554 401.971C408.699 401.971 438 372.669 438 336.525H434C434 370.46 406.49 397.971 372.554 397.971V401.971ZM438 336.525C438 300.38 408.699 271.078 372.554 271.078V275.078C406.49 275.078 434 302.589 434 336.525H438ZM372.554 271.078C372.299 271.078 372.045 271.08 371.792 271.083L371.837 275.083C372.076 275.08 372.315 275.078 372.554 275.078V271.078ZM369.814 273.078V273.083H373.814V273.078H369.814ZM355.425 275.078H371.814V271.078H355.425V275.078ZM357.407 273.349C358.011 268.917 358.323 264.394 358.323 259.798H354.323C354.323 264.212 354.023 268.555 353.443 272.808L357.407 273.349ZM358.323 259.798C358.323 204.911 313.828 160.416 258.941 160.416V164.416C311.619 164.416 354.323 207.12 354.323 259.798H358.323ZM258.941 160.416C204.053 160.416 159.558 204.911 159.558 259.798H163.558C163.558 207.12 206.262 164.416 258.941 164.416V160.416ZM159.558 259.798C159.558 264.976 159.954 270.062 160.718 275.027L164.672 274.419C163.939 269.654 163.558 264.771 163.558 259.798H159.558ZM163.147 272.775C158.369 271.665 153.391 271.078 148.279 271.078V275.078C153.084 275.078 157.758 275.63 162.242 276.671L163.147 272.775ZM148.279 271.078C112.134 271.078 82.8331 300.38 82.8331 336.525H86.8331C86.8331 302.589 114.343 275.078 148.279 275.078V271.078ZM82.8331 336.525C82.8331 372.669 112.134 401.971 148.279 401.971V397.971C114.343 397.971 86.8331 370.46 86.8331 336.525H82.8331ZM148.279 401.971C148.534 401.971 148.788 401.969 149.042 401.966L148.996 397.967C148.758 397.969 148.518 397.971 148.279 397.971V401.971ZM150.586 401.209L150.589 401.205L147.449 398.728L147.445 398.732L150.586 401.209ZM371.814 397.971H149.016V401.971H371.814V397.971ZM369.814 399.966V399.971H373.814V399.966H369.814Z" fill="url(#paint4_linear_2_55)" mask="url(#path-5-inside-1_2_55)"/>
</g>
<defs>
<filter id="filter0_f_2_55" x="0" y="0" width="337.083" height="337.083" filterUnits="userSpaceOnUse" color-interpolation-filters="sRGB">
<feFlood flood-opacity="0" result="BackgroundImageFix"/>
<feBlend mode="normal" in="SourceGraphic" in2="BackgroundImageFix" result="shape"/>
<feGaussianBlur stdDeviation="22" result="effect1_foregroundBlur_2_55"/>
</filter>
<filter id="filter1_f_2_55" x="-147.625" y="291.333" width="513.917" height="203.584" filterUnits="userSpaceOnUse" color-interpolation-filters="sRGB">
<feFlood flood-opacity="0" result="BackgroundImageFix"/>
<feBlend mode="normal" in="SourceGraphic" in2="BackgroundImageFix" result="shape"/>
<feGaussianBlur stdDeviation="7" result="effect1_foregroundBlur_2_55"/>
</filter>
<filter id="filter2_bd_2_55" x="13.8331" y="127.416" width="451.167" height="337.555" filterUnits="userSpaceOnUse" color-interpolation-filters="sRGB">
<feFlood flood-opacity="0" result="BackgroundImageFix"/>
<feGaussianBlur in="BackgroundImage" stdDeviation="7"/>
<feComposite in2="SourceAlpha" operator="in" result="effect1_backgroundBlur_2_55"/>
<feColorMatrix in="SourceAlpha" type="matrix" values="0 0 0 0 0 0 0 0 0 0 0 0 0 0 0 0 0 0 127 0" result="hardAlpha"/>
<feOffset dx="-21" dy="15"/>
<feGaussianBlur stdDeviation="25"/>
<feComposite in2="hardAlpha" operator="out"/>
<feColorMatrix type="matrix" values="0 0 0 0 0.113438 0 0 0 0 0.148981 0 0 0 0 0.275 0 0 0 0.1 0"/>
<feBlend mode="normal" in2="effect1_backgroundBlur_2_55" result="effect2_dropShadow_2_55"/>
<feBlend mode="normal" in="SourceGraphic" in2="effect2_dropShadow_2_55" result="shape"/>
</filter>
<linearGradient id="paint0_linear_2_55" x1="168.542" y1="52.1664" x2="168.542" y2="293.083" gradientUnits="userSpaceOnUse">
<stop stop-color="#FFE600"/>
<stop offset="1" stop-color="#FF7A00"/>
</linearGradient>
<linearGradient id="paint1_linear_2_55" x1="168.542" y1="52.1664" x2="168.542" y2="293.083" gradientUnits="userSpaceOnUse">
<stop stop-color="white"/>
<stop offset="1" stop-color="white" stop-opacity="0"/>
</linearGradient>
<linearGradient id="paint2_linear_2_55" x1="168.542" y1="52.1667" x2="168.542" y2="293.083" gradientUnits="userSpaceOnUse">
<stop stop-color="#FFD600"/>
<stop offset="1" stop-color="#FF7A00"/>
</linearGradient>
<linearGradient id="paint3_linear_2_55" x1="276.75" y1="169.562" x2="276.75" y2="426.813" gradientUnits="userSpaceOnUse">
<stop stop-color="white"/>
<stop offset="1" stop-color="white" stop-opacity="0"/>
</linearGradient>
<linearGradient id="paint4_linear_2_55" x1="260.417" y1="162.416" x2="260.417" y2="399.971" gradientUnits="userSpaceOnUse">
<stop stop-color="white"/>
<stop offset="1" stop-color="white" stop-opacity="0"/>
</linearGradient>
</defs>
</svg>
