<svg width="540" height="530" viewBox="0 0 540 530" fill="none" xmlns="http://www.w3.org/2000/svg">
<g filter="url(#filter0_bdd_2_245)">
<path d="M183.143 328.988L254.642 198.146C254.992 197.504 255.665 197.105 256.397 197.105H327.8C329.303 197.105 330.269 198.702 329.572 200.033L284.007 287.019C283.31 288.351 284.276 289.947 285.779 289.947H343.579C345.308 289.947 346.223 291.993 345.07 293.281L192.292 464.033C190.817 465.681 188.154 464.071 188.928 461.999L236.517 334.647C237.006 333.34 236.039 331.947 234.644 331.947H184.898C183.38 331.947 182.415 330.321 183.143 328.988Z" fill="url(#paint0_linear_2_245)"/>
<path d="M184.021 329.468L255.519 198.626C255.695 198.305 256.031 198.105 256.397 198.105H327.8C328.552 198.105 329.034 198.903 328.686 199.569L283.122 286.555C282.075 288.553 283.524 290.947 285.779 290.947H343.579C344.444 290.947 344.901 291.97 344.325 292.614L191.547 463.366C190.809 464.19 189.478 463.385 189.865 462.349L237.454 334.997C238.187 333.037 236.737 330.947 234.644 330.947H184.898C184.139 330.947 183.657 330.134 184.021 329.468Z" stroke="url(#paint1_linear_2_245)" stroke-width="2"/>
</g>
<g filter="url(#filter1_bd_2_245)">
<mask id="path-3-inside-1_2_245" fill="white">
<path fill-rule="evenodd" clip-rule="evenodd" d="M357.632 272.259C357.877 272.262 358.122 272.263 358.368 272.263C393.366 272.263 421.737 243.892 421.737 208.895C421.737 173.897 393.366 145.526 358.368 145.526C358.122 145.526 357.877 145.528 357.632 145.531V145.526H341.261C341.852 141.19 342.158 136.762 342.158 132.263C342.158 78.5462 298.612 35 244.895 35C191.178 35 147.632 78.5462 147.632 132.263C147.632 137.332 148.019 142.31 148.767 147.169C144.141 146.094 139.321 145.526 134.368 145.526C99.371 145.526 71 173.897 71 208.895C71 243.892 99.371 272.263 134.368 272.263C134.615 272.263 134.862 272.262 135.109 272.259L135.105 272.263H357.632V272.259Z"/>
</mask>
<path fill-rule="evenodd" clip-rule="evenodd" d="M357.632 272.259C357.877 272.262 358.122 272.263 358.368 272.263C393.366 272.263 421.737 243.892 421.737 208.895C421.737 173.897 393.366 145.526 358.368 145.526C358.122 145.526 357.877 145.528 357.632 145.531V145.526H341.261C341.852 141.19 342.158 136.762 342.158 132.263C342.158 78.5462 298.612 35 244.895 35C191.178 35 147.632 78.5462 147.632 132.263C147.632 137.332 148.019 142.31 148.767 147.169C144.141 146.094 139.321 145.526 134.368 145.526C99.371 145.526 71 173.897 71 208.895C71 243.892 99.371 272.263 134.368 272.263C134.615 272.263 134.862 272.262 135.109 272.259L135.105 272.263H357.632V272.259Z" fill="url(#paint2_linear_2_245)" shape-rendering="crispEdges"/>
<path d="M357.632 272.259L357.654 270.259C357.12 270.253 356.605 270.461 356.225 270.837C355.845 271.212 355.632 271.725 355.632 272.259H357.632ZM357.632 145.531H355.632C355.632 146.065 355.845 146.577 356.225 146.953C356.605 147.328 357.12 147.536 357.654 147.53L357.632 145.531ZM357.632 145.526H359.632C359.632 144.422 358.736 143.526 357.632 143.526V145.526ZM341.261 145.526L339.279 145.256C339.201 145.828 339.375 146.406 339.754 146.842C340.134 147.277 340.684 147.526 341.261 147.526V145.526ZM148.767 147.169L148.314 149.117C148.961 149.268 149.64 149.087 150.126 148.636C150.613 148.185 150.844 147.521 150.743 146.865L148.767 147.169ZM135.109 272.259L136.677 273.499C137.156 272.895 137.244 272.069 136.904 271.377C136.564 270.685 135.857 270.25 135.086 270.259L135.109 272.259ZM135.105 272.263L133.536 271.023C133.061 271.624 132.971 272.445 133.305 273.135C133.639 273.825 134.339 274.263 135.105 274.263V272.263ZM357.632 272.263V274.263C358.736 274.263 359.632 273.368 359.632 272.263H357.632ZM357.609 274.259C357.862 274.262 358.115 274.263 358.368 274.263V270.263C358.13 270.263 357.892 270.262 357.654 270.259L357.609 274.259ZM358.368 274.263C394.47 274.263 423.737 244.997 423.737 208.895H419.737C419.737 242.788 392.261 270.263 358.368 270.263V274.263ZM423.737 208.895C423.737 172.793 394.47 143.526 358.368 143.526V147.526C392.261 147.526 419.737 175.002 419.737 208.895H423.737ZM358.368 143.526C358.115 143.526 357.862 143.528 357.609 143.531L357.654 147.53C357.892 147.528 358.13 147.526 358.368 147.526V143.526ZM355.632 145.526V145.531H359.632V145.526H355.632ZM341.261 147.526H357.632V143.526H341.261V147.526ZM343.243 145.797C343.846 141.371 344.158 136.853 344.158 132.263H340.158C340.158 136.671 339.859 141.009 339.279 145.256L343.243 145.797ZM344.158 132.263C344.158 77.4416 299.716 33 244.895 33V37C297.507 37 340.158 79.6508 340.158 132.263H344.158ZM244.895 33C190.073 33 145.632 77.4416 145.632 132.263H149.632C149.632 79.6508 192.282 37 244.895 37V33ZM145.632 132.263C145.632 137.434 146.027 142.514 146.79 147.473L150.743 146.865C150.011 142.106 149.632 137.23 149.632 132.263H145.632ZM149.219 145.221C144.446 144.112 139.475 143.526 134.368 143.526V147.526C139.168 147.526 143.836 148.077 148.314 149.117L149.219 145.221ZM134.368 143.526C98.2664 143.526 69 172.793 69 208.895H73C73 175.002 100.476 147.526 134.368 147.526V143.526ZM69 208.895C69 244.997 98.2664 274.263 134.368 274.263V270.263C100.476 270.263 73 242.788 73 208.895H69ZM134.368 274.263C134.623 274.263 134.877 274.262 135.132 274.259L135.086 270.259C134.847 270.262 134.608 270.263 134.368 270.263V274.263ZM136.674 273.504L136.677 273.499L133.54 271.019L133.536 271.023L136.674 273.504ZM357.632 270.263H135.105V274.263H357.632V270.263ZM355.632 272.259V272.263H359.632V272.259H355.632Z" fill="url(#paint3_linear_2_245)" mask="url(#path-3-inside-1_2_245)"/>
</g>
<g filter="url(#filter2_bd_2_245)">
<mask id="path-5-inside-2_2_245" fill="white">
<path fill-rule="evenodd" clip-rule="evenodd" d="M463.882 206.464C464.06 206.466 464.237 206.467 464.415 206.467C489.707 206.467 510.211 185.964 510.211 160.672C510.211 135.38 489.707 114.876 464.415 114.876C464.237 114.876 464.06 114.877 463.882 114.879V114.876H452.052C452.479 111.742 452.7 108.542 452.7 105.291C452.7 66.4704 421.229 35 382.409 35C343.588 35 312.118 66.4704 312.118 105.291C312.118 108.954 312.398 112.552 312.938 116.063C309.595 115.287 306.112 114.876 302.532 114.876C277.24 114.876 256.737 135.38 256.737 160.672C256.737 185.964 277.24 206.467 302.532 206.467C302.711 206.467 302.889 206.466 303.067 206.464L303.065 206.467H463.882V206.464Z"/>
</mask>
<path fill-rule="evenodd" clip-rule="evenodd" d="M463.882 206.464C464.06 206.466 464.237 206.467 464.415 206.467C489.707 206.467 510.211 185.964 510.211 160.672C510.211 135.38 489.707 114.876 464.415 114.876C464.237 114.876 464.06 114.877 463.882 114.879V114.876H452.052C452.479 111.742 452.7 108.542 452.7 105.291C452.7 66.4704 421.229 35 382.409 35C343.588 35 312.118 66.4704 312.118 105.291C312.118 108.954 312.398 112.552 312.938 116.063C309.595 115.287 306.112 114.876 302.532 114.876C277.24 114.876 256.737 135.38 256.737 160.672C256.737 185.964 277.24 206.467 302.532 206.467C302.711 206.467 302.889 206.466 303.067 206.464L303.065 206.467H463.882V206.464Z" fill="url(#paint4_linear_2_245)" shape-rendering="crispEdges"/>
<path d="M463.882 206.464L463.905 204.465C463.371 204.458 462.856 204.666 462.476 205.042C462.096 205.418 461.882 205.93 461.882 206.464H463.882ZM463.882 114.879H461.882C461.882 115.414 462.096 115.926 462.476 116.301C462.856 116.677 463.371 116.885 463.905 116.879L463.882 114.879ZM463.882 114.876H465.882C465.882 113.772 464.987 112.876 463.882 112.876V114.876ZM452.052 114.876L450.07 114.606C449.992 115.178 450.165 115.756 450.545 116.191C450.925 116.626 451.474 116.876 452.052 116.876V114.876ZM312.938 116.063L312.485 118.012C313.132 118.162 313.811 117.981 314.298 117.53C314.784 117.079 315.016 116.415 314.915 115.759L312.938 116.063ZM303.067 206.464L304.637 207.704C305.114 207.1 305.202 206.274 304.862 205.582C304.522 204.891 303.815 204.456 303.044 204.465L303.067 206.464ZM303.065 206.467L301.496 205.227C301.02 205.829 300.931 206.649 301.265 207.339C301.599 208.029 302.298 208.467 303.065 208.467V206.467ZM463.882 206.467V208.467C464.987 208.467 465.882 207.572 465.882 206.467H463.882ZM463.86 208.464C464.044 208.466 464.229 208.467 464.415 208.467V204.467C464.245 204.467 464.075 204.466 463.905 204.465L463.86 208.464ZM464.415 208.467C490.812 208.467 512.211 187.069 512.211 160.672H508.211C508.211 184.859 488.603 204.467 464.415 204.467V208.467ZM512.211 160.672C512.211 134.275 490.812 112.876 464.415 112.876V116.876C488.603 116.876 508.211 136.484 508.211 160.672H512.211ZM464.415 112.876C464.229 112.876 464.044 112.877 463.859 112.879L463.905 116.879C464.075 116.877 464.245 116.876 464.415 116.876V112.876ZM461.882 114.876V114.879H465.882V114.876H461.882ZM452.052 116.876H463.882V112.876H452.052V116.876ZM454.033 115.146C454.473 111.923 454.7 108.633 454.7 105.291H450.7C450.7 108.452 450.485 111.561 450.07 114.606L454.033 115.146ZM454.7 105.291C454.7 65.3658 422.334 33 382.409 33V37C420.125 37 450.7 67.5749 450.7 105.291H454.7ZM382.409 33C342.483 33 310.118 65.3658 310.118 105.291H314.118C314.118 67.5749 344.693 37 382.409 37V33ZM310.118 105.291C310.118 109.056 310.406 112.755 310.961 116.367L314.915 115.759C314.39 112.348 314.118 108.852 314.118 105.291H310.118ZM313.391 114.115C309.9 113.304 306.265 112.876 302.532 112.876V116.876C305.958 116.876 309.29 117.269 312.485 118.012L313.391 114.115ZM302.532 112.876C276.136 112.876 254.737 134.275 254.737 160.672H258.737C258.737 136.484 278.345 116.876 302.532 116.876V112.876ZM254.737 160.672C254.737 187.069 276.136 208.467 302.532 208.467V204.467C278.345 204.467 258.737 184.859 258.737 160.672H254.737ZM302.532 208.467C302.719 208.467 302.904 208.466 303.09 208.464L303.044 204.465C302.874 204.466 302.703 204.467 302.532 204.467V208.467ZM304.634 207.707L304.637 207.704L301.498 205.224L301.496 205.227L304.634 207.707ZM463.882 204.467H303.065V208.467H463.882V204.467ZM461.882 206.464V206.467H465.882V206.464H461.882Z" fill="url(#paint5_linear_2_245)" mask="url(#path-5-inside-2_2_245)"/>
</g>
<defs>
<filter id="filter0_bdd_2_245" x="111.896" y="136.105" width="294.688" height="393.607" filterUnits="userSpaceOnUse" color-interpolation-filters="sRGB">
<feFlood flood-opacity="0" result="BackgroundImageFix"/>
<feGaussianBlur in="BackgroundImage" stdDeviation="7"/>
<feComposite in2="SourceAlpha" operator="in" result="effect1_backgroundBlur_2_245"/>
<feColorMatrix in="SourceAlpha" type="matrix" values="0 0 0 0 0 0 0 0 0 0 0 0 0 0 0 0 0 0 127 0" result="hardAlpha"/>
<feOffset dx="-21" dy="15"/>
<feGaussianBlur stdDeviation="25"/>
<feComposite in2="hardAlpha" operator="out"/>
<feColorMatrix type="matrix" values="0 0 0 0 0.113438 0 0 0 0 0.148981 0 0 0 0 0.275 0 0 0 0.1 0"/>
<feBlend mode="normal" in2="effect1_backgroundBlur_2_245" result="effect2_dropShadow_2_245"/>
<feColorMatrix in="SourceAlpha" type="matrix" values="0 0 0 0 0 0 0 0 0 0 0 0 0 0 0 0 0 0 127 0" result="hardAlpha"/>
<feOffset/>
<feGaussianBlur stdDeviation="30.5"/>
<feComposite in2="hardAlpha" operator="out"/>
<feColorMatrix type="matrix" values="0 0 0 0 1 0 0 0 0 0.721569 0 0 0 0 0.00392157 0 0 0 0.49 0"/>
<feBlend mode="normal" in2="effect2_dropShadow_2_245" result="effect3_dropShadow_2_245"/>
<feBlend mode="normal" in="SourceGraphic" in2="effect3_dropShadow_2_245" result="shape"/>
</filter>
<filter id="filter1_bd_2_245" x="0" y="0" width="450.737" height="337.263" filterUnits="userSpaceOnUse" color-interpolation-filters="sRGB">
<feFlood flood-opacity="0" result="BackgroundImageFix"/>
<feGaussianBlur in="BackgroundImage" stdDeviation="7"/>
<feComposite in2="SourceAlpha" operator="in" result="effect1_backgroundBlur_2_245"/>
<feColorMatrix in="SourceAlpha" type="matrix" values="0 0 0 0 0 0 0 0 0 0 0 0 0 0 0 0 0 0 127 0" result="hardAlpha"/>
<feOffset dx="-21" dy="15"/>
<feGaussianBlur stdDeviation="25"/>
<feComposite in2="hardAlpha" operator="out"/>
<feColorMatrix type="matrix" values="0 0 0 0 0.113725 0 0 0 0 0.14902 0 0 0 0 0.27451 0 0 0 0.1 0"/>
<feBlend mode="normal" in2="effect1_backgroundBlur_2_245" result="effect2_dropShadow_2_245"/>
<feBlend mode="normal" in="SourceGraphic" in2="effect2_dropShadow_2_245" result="shape"/>
</filter>
<filter id="filter2_bd_2_245" x="185.737" y="0" width="353.474" height="271.467" filterUnits="userSpaceOnUse" color-interpolation-filters="sRGB">
<feFlood flood-opacity="0" result="BackgroundImageFix"/>
<feGaussianBlur in="BackgroundImage" stdDeviation="7"/>
<feComposite in2="SourceAlpha" operator="in" result="effect1_backgroundBlur_2_245"/>
<feColorMatrix in="SourceAlpha" type="matrix" values="0 0 0 0 0 0 0 0 0 0 0 0 0 0 0 0 0 0 127 0" result="hardAlpha"/>
<feOffset dx="-21" dy="15"/>
<feGaussianBlur stdDeviation="25"/>
<feComposite in2="hardAlpha" operator="out"/>
<feColorMatrix type="matrix" values="0 0 0 0 0.113438 0 0 0 0 0.148981 0 0 0 0 0.275 0 0 0 0.1 0"/>
<feBlend mode="normal" in2="effect1_backgroundBlur_2_245" result="effect2_dropShadow_2_245"/>
<feBlend mode="normal" in="SourceGraphic" in2="effect2_dropShadow_2_245" result="shape"/>
</filter>
<linearGradient id="paint0_linear_2_245" x1="281" y1="213.316" x2="244.158" y2="373.21" gradientUnits="userSpaceOnUse">
<stop stop-color="#FF4D00"/>
<stop offset="1" stop-color="#FFB800"/>
</linearGradient>
<linearGradient id="paint1_linear_2_245" x1="231.632" y1="371" x2="298.684" y2="227.316" gradientUnits="userSpaceOnUse">
<stop stop-color="white"/>
<stop offset="1" stop-color="white" stop-opacity="0"/>
</linearGradient>
<linearGradient id="paint2_linear_2_245" x1="246.368" y1="-40.8947" x2="246.368" y2="305.421" gradientUnits="userSpaceOnUse">
<stop stop-color="white"/>
<stop offset="1" stop-color="white" stop-opacity="0"/>
</linearGradient>
<linearGradient id="paint3_linear_2_245" x1="246.368" y1="35" x2="246.368" y2="272.263" gradientUnits="userSpaceOnUse">
<stop stop-color="white"/>
<stop offset="1" stop-color="white" stop-opacity="0"/>
</linearGradient>
<linearGradient id="paint4_linear_2_245" x1="395.263" y1="40.1579" x2="395.263" y2="225.842" gradientUnits="userSpaceOnUse">
<stop stop-color="white"/>
<stop offset="1" stop-color="white" stop-opacity="0"/>
</linearGradient>
<linearGradient id="paint5_linear_2_245" x1="383.474" y1="35" x2="383.474" y2="206.467" gradientUnits="userSpaceOnUse">
<stop stop-color="white"/>
<stop offset="1" stop-color="white" stop-opacity="0"/>
</linearGradient>
</defs>
</svg>
